<?xml version="1.0" encoding="utf-8"?>
<!-- Generator: Adobe Illustrator 16.0.0, SVG Export Plug-In . SVG Version: 6.00 Build 0)  -->
<!DOCTYPE svg PUBLIC "-//W3C//DTD SVG 1.1//EN" "http://www.w3.org/Graphics/SVG/1.1/DTD/svg11.dtd">
<svg version="1.1" id="Layer_1" xmlns="http://www.w3.org/2000/svg" xmlns:xlink="http://www.w3.org/1999/xlink" x="0px" y="0px"
	 width="193.515px" height="172.921px" viewBox="0 0 193.515 172.921" enable-background="new 0 0 193.515 172.921"
	 xml:space="preserve">
<g>
	<polyline fill-rule="evenodd" clip-rule="evenodd" fill="#FEFEFE" points="19.753,142.283 17.098,144.075 12.278,158.651 
		24.68,164.566 81.805,164.566 90.555,155.456 91.082,145.823 82.305,141.333 65.083,139.416 	"/>
	<path fill-rule="evenodd" clip-rule="evenodd" fill="#FEFEFE" d="M71.679,109.716c-8.749,2.204-28.214,9.43-31.765,10.595
		c-10.297,5.017-13.318,10.109-16.609,20.896c11.022,2.248,15.057,2.312,23.875,0.657c9.028-1.693,16.443-1.196,24.568-2.333
		c0.874,0.023,2.182,0.64,2.622,0.069c0.386-0.063,0.771-0.124,1.157-0.187c4.698-0.963,10.466,2.327,14.371,5.418
		c1.127,0.085,1.761-2.715,2.738-2.286c2.838,1.244,2.868-0.317,2.858-2.843c-1.125-0.938-1.313-1.871,0.019-2.796
		c0.284-3.469-2.311-4.985-4.596-6.648c-3.896-2.838-8.387-4.469-12.885-6.021c-4.688-1.617-7.384-4.055-5.275-9.552
		C73.322,113.216,75.589,110.556,71.679,109.716z"/>
	<path fill-rule="evenodd" clip-rule="evenodd" fill="#FEFEFE" d="M98.395,23.06c2.285,0.701,4.16,2.772,3.277,5.001
		c-0.567,1.432-4.324,1.262-5.625,1.273c-2.479,0.021-7.773,0.491-10.253,0.46c-1.114-0.013-1.765-1.632-1.87-2.536
		c-0.121-1.053,4.559-3.274,5.495-3.498c0.721-0.171,2.203-0.776,2.92-0.96C95.784,22.107,96.338,22.453,98.395,23.06z"/>
	<g>
		<path fill-rule="evenodd" clip-rule="evenodd" d="M85.516,160.798c0.015-5.353-0.28-5.625-4.969-3.791
			c-6.813,2.664-13.717,3.763-20.891,1.644c-1.115-3.291,2.793-0.708,2.944-2.519c0.635,0.016,1.27,0.032,1.904,0.048
			c0.561,0.709,1.317,0.75,2.123,0.627c5.643,0.056,10.496-2.792,15.703-4.329c0.714-0.211,0.324-1.105,0.09-1.698
			c0.691-0.696,1.381-1.394,2.071-2.09c0.162,0.041,0.321,0.094,0.484,0.12c1.823,0.29,3.242,3.812,5.02,1.619
			c1.737-2.142-1.942-2.777-2.619-4.451c-0.131-1.511,0.767-2.057,2.076-2.218c4.107-0.846,1.445-4.088,2.061-6.141
			c0.523-1.743-1.034-2.075-2.47-1.956c-1.595,0.133-2.546-0.36-2.276-2.164c4.007-3.063,4.007-3.063,0.92-4.719
			c-5.421-2.724-11.26-4.312-17.055-5.893c-4.636-1.266-5.813-2.958-3.856-7.46c0.457-1.051,1.405-1.998-0.187-2.858
			c-0.017-1.571-0.035-3.144-0.052-4.714c4.146-2.002,2.626-6.313,3.773-9.509c3.308-9.217,6.306-18.534,6.496-28.495
			c0.062-3.231,0.159-6.328-3.1-8.246c-0.007-0.901-0.014-1.802-0.02-2.705c0.233-0.061,0.471-0.095,0.714-0.102
			c0.409-0.185,0.817-0.368,1.225-0.552c0.971,0.02,1.94,0.038,2.911,0.057c0.828,1.034,6.732,1.631,6.732,1.631
			s18.678,1.034,18.328-1.128l-0.06,0.057c2.971-0.294,5.942-0.589,8.913-0.883c-0.338,0.854-0.676,1.707-1.014,2.56
			c0.164,8.944-0.478,17.917,1.349,26.794c1.183,5.756,0.386,11.774,2.515,17.481c0.735,1.971,1.699,2.019,3.162,2.088
			c-0.001,0.937-0.004,1.873-0.006,2.811c-3.91,0.84-1.643,3.5-1.078,4.97c2.108,5.497-0.588,7.935-5.275,9.552
			c-4.498,1.553-8.988,3.184-12.885,6.021c-2.285,1.663-4.88,3.18-4.596,6.648c-1.805,0.945-0.458,1.867,0.02,2.794
			c-0.011,2.527,0.74,3.817,3.578,2.573c0.977-0.429,2.229-0.226,3.355-0.311c-0.404,1.68-3.065,1.706-2.824,3.857
			c1.081,2.95-0.858,5.183-2.741,8.49c6.32-2.761,11.921-2.443,17.511-2.487c2.652-0.021,5.623,1.626,5.656,3.066
			c0.075,3.231-3.198,1.662-5.068,1.806c-3.167,0.243-6.454-0.348-9.559,2.045c3.669,1.809,7.436,1.352,10.856,0.872
			c14.741-2.068,29.489-3.582,44.4-2.941c1.645,0.07,3.224,0.051,4.738,0.941c0.738,0.434,2.308-0.053,1.893,1.483
			c-0.303,1.118-1.246,1.946-2.688,1.427c-3.93-1.415-7.991-0.104-12.241-1.069c2.12,3.981,8.265,6.071,12.196,4.681
			c1.153-0.408,1.998-1.34,3.572-1.116c4.46,0.634,8.96,0.8,12.271-3.756c-2.413-0.425-4.973,1.942-7.235-0.325
			c1.145-2.042,4.085-0.64,4.743-3.064c-2.354-1.832-5.147-0.492-7.648-1.055c-0.993-0.225-2.754,0.464-2.66-1.3
			c0.063-1.166,1.335-1.759,2.66-1.771c1.606-0.016,3.211-0.138,5.139-0.229c-0.987-2.497-2.158-4.225-4.794-3.566
			c-9.252,2.308-18.29-1.101-27.482-0.933c-7.755,0.142-14.916-3.682-22.604-4.432c-0.426-1.02-0.852-2.038-1.277-3.058
			c8.125,1.138,16.311,1.96,24.359,3.495c8.868,1.691,17.642,0.285,26.65,0.762c-3.291-10.787-7.437-20.191-17.733-25.208
			c0.31-0.582,0.617-1.164,0.926-1.746c4.578,0.112,7.623,3.256,9.678,6.46c7.627,11.892,16.591,23.022,21.76,36.376
			c1.322,3.412,4.545,3.857,7.252,5.077c1.342,0.604,2.438,1.155,2.206,2.773c-0.239,1.679-1.687,1.189-2.763,1.355
			c-24.403,3.748-48.959,1.67-73.433,1.477c-6.63-0.053-12.719,0.102-19.206,1.832c-7.965,2.124-15.694-0.539-22.429-5.454
			c-1.735-1.418-3.814-0.909-5.745-0.91c-18.486-0.017-36.972,0.011-55.458,0.085c-4.171,0.017-8.251-0.234-12.033-2.221
			c2.009-4.808,5.508-8.28,9.861-10.985c1.059-0.026,2.024,0.119,2.418,1.314c-1.25,3.117,0.865,6.764,4.501,7.679
			c0.631,0.159,1.322,0.163,1.979,0.127c13.231-0.732,26.379,1.532,39.611,1.052c5.688-0.207,11.394-0.068,17.086,0.095
			c2.385,0.068,4.543-0.467,6.678-1.362c0.914,0.013,1.83,0.023,2.746,0.035c1.742,3.688,5.983,1.734,8.502,3.749
			c0.752,0.601,1.932,0.778,2.488-0.319c0.445-0.88-0.413-1.485-1.013-2.05c-2.45-2.308-5.236-4.187-7.284-7.021
			c-1.643-2.275-3.03-1.037-3.495,1.32C86.031,158.438,87.049,159.977,85.516,160.798z M87.488,68.646
			c-1.435,0.367-2.865,0.754-4.306,1.096c-1.875,0.446-3.733,1.308-3.49,3.414c0.209,1.81,1.615,2.903,3.843,2.929
			c4.962,0.061,9.922,0.632,14.879,0.589c2.601-0.022,5.438-0.771,6.398-3.698c0.956-2.917-1.838-3.997-3.396-5.631
			C96.635,66.288,92.086,67.732,87.488,68.646z M80.635,96.586c0.985,1.611,2.565,1.175,4.021,1.169
			c1.284,0.054,18.335,0.171,19.394-0.211c2.28-0.824,3.983-2.131,3.636-5.024c-0.341-2.836-2.428-2.592-4.386-2.889
			c-6.59-0.997-13.228-0.86-19.808-0.377C78.638,89.611,77.64,92.716,80.635,96.586z M91.103,111.92
			c4.145-0.652,8.639,0.877,12.85-1.63c1.744-1.037,1.545-2.192,1.563-3.621c0.024-2.07-1.478-1.804-2.758-1.813
			c-4.467-0.03-8.938,0.081-13.399-0.085c-2.558-0.095-5.31,0.954-7.647-0.97c-1.492-1.229-3.042-1.434-4.331,0.154
			c-1.432,1.765-0.531,3.181,0.725,4.776C81.626,113.208,86.606,111.039,91.103,111.92z M149.425,158.856
			c-13.699,1.38-26.968,2.717-40.937,4.123c4.451,1.983,8.386,1.783,12.322,1.906c7.778,0.242,15.449-1.858,23.215-1.044
			C147.547,164.21,149.132,162.832,149.425,158.856z"/>
		<path fill-rule="evenodd" clip-rule="evenodd" d="M115.299,24.653c18.01-6.535,33.764-17.772,51.959-23.617
			c0.631-0.203,1.367-0.198,1.913-0.526c1.217-0.731,2.438-0.805,2.785,0.642c0.269,1.114-1.14,1.301-2.019,1.628
			c-7.853,2.921-15.778,5.662-23.28,9.441c-0.555,0.279-1.041,0.694-2.82,1.905c11.911-0.611,20.446-8.681,31.13-8.142
			c-13.143,3.929-25.131,11.006-38.952,13.191c-4.613,0.729-9.698,2.422-13.827,5.562C120.038,26.374,117.691,23.569,115.299,24.653
			z"/>
		<path fill-rule="evenodd" clip-rule="evenodd" d="M17.879,11.089C20.729,10.594,23.334,11,26.098,12
			c12.239,4.428,24.089,10.026,37.01,12.471c1.152,0.218,3.588-0.321,3.255,2.054c-0.333,2.377-2.525,1.377-3.625,1.023
			c-14.701-4.718-29.354-9.581-44.012-14.434C18.106,12.911,17.574,12.448,17.879,11.089z"/>
		<path fill-rule="evenodd" clip-rule="evenodd" d="M111.504,39.325c5.261-0.464,9.826-0.97,14.406-1.245
			c7.409-0.446,14.811-0.689,22.015-2.909c2.081-0.641,4.605-0.927,6.64,0.703c0.2,0.16,0.152,1.063-0.083,1.262
			c-1.727,1.461-3.805,1.579-5.999,1.716c-10.191,0.638-20.205,3.386-30.526,2.583C115.92,41.278,113.633,42.192,111.504,39.325z"/>
		<path fill-rule="evenodd" clip-rule="evenodd" d="M89.452,143.76c-1.309,0.161-2.207,0.707-2.076,2.218
			c-2.468-2.519-5.664-2.811-8.949-3.474c-9.535-1.924-18.979-1.878-28.473-0.048c-2.625,0.506-5.259,0.586-9.24,0.06
			c5.281-2.868,9.942-4.337,14.66-4.511c5.551-0.205,11.307-0.908,16.672,1.525c2.353,1.067,4.32-1.275,6.75-0.558
			C82.59,140.093,86.39,141.066,89.452,143.76z"/>
		<path fill-rule="evenodd" clip-rule="evenodd" d="M99.695,23.637c-4.66-1.359-9.096-0.896-13.344,1.518
			c-1.334,0.757-2.569,1.619-2.062,3.342c0.408,1.384,1.698,1.443,3.065,1.367c4.445-0.249,9.12-0.806,13.563-1.084
			c0.33,0.581,0.427,1.422,0.756,2.003c-6.815,2.901-13.95,2.206-21.008,1.614c-1.987-0.166-4.008-0.585-1.77-4.122
			c2.581-4.079,6.006-6.379,9.855-8.577L99.695,23.637z"/>
		<path fill-rule="evenodd" clip-rule="evenodd" d="M129.063,27.339c6.558-1.155,13.076-2.767,19.685-3.332
			c6.252-0.534,12.473-1.132,18.672-2.077c1.457-0.222,2.983-0.131,4.464-0.014c1.179,0.094,2.483,0.549,2.323,1.992
			c-0.155,1.398-1.522,0.88-2.412,0.89c-11.544,0.136-22.975,1.166-34.285,3.646c-2.65,0.581-5.538,0.086-8.317,0.086
			C129.149,28.133,129.106,27.737,129.063,27.339z"/>
		<path fill-rule="evenodd" clip-rule="evenodd" d="M34.585,124.021c-2.959,4.973-6.167,9.756-9.737,14.33
			c-1.25,1.602,0.336,2.133,2.061,2.65c3.305,0.992,7.046,0.104,10.076,2.201c-5.819,0.562-11.592,1.221-17.231-0.92
			c2.614-6.262,8.036-10.624,9.789-17.101c0.522-1.931,1.956-2.515,3.799-2.413C33.757,123.186,34.171,123.604,34.585,124.021z"/>
		<path fill-rule="evenodd" clip-rule="evenodd" d="M2.417,163.684c3.782,1.986,7.862,2.237,12.033,2.221
			c18.486-0.074,36.972-0.102,55.458-0.085c1.931,0.001,4.009-0.508,5.745,0.91c-16.396,0.044-32.793,0.001-49.189,0.172
			c-6.936,0.072-13.866,0.616-20.801,0.896c-1.454,0.059-2.958,0.34-4.272-0.758C-1.008,165.037-0.069,164.146,2.417,163.684z"/>
		<path fill-rule="evenodd" clip-rule="evenodd" d="M84.49,148.69c-0.69,0.696-1.38,1.394-2.071,2.09
			c-5.848-1.943-11.803-1.217-17.676-0.409c-7.786,1.07-15.556,0.444-23.332,0.301c-1.161-0.021-2.306-0.905-4.471-1.816
			c6.092,0,11.064-0.103,16.03,0.024c7.133,0.184,14.113-0.953,21.142-1.914C77.593,146.49,81.439,145.722,84.49,148.69z"/>
		<path fill-rule="evenodd" clip-rule="evenodd" d="M88.75,19.698c2.903-3.353,5.776-4.19,9.456-0.757
			c2.843,2.652,6.982,3.542,9.628,6.739c2.138,2.584,2.52,3.875-1.462,4.108c-1.581,0.093-3.136,0.649-4.7,0.994
			c-0.328-0.581-0.658-1.161-0.989-1.742c2.194-2.262,0.25-3.768-0.987-5.404L88.75,19.698z"/>
		<path fill-rule="evenodd" clip-rule="evenodd" d="M152.588,116.833c-0.309,0.582-0.616,1.164-0.926,1.746
			c-3.551-1.165-7.204-2.3-10.778-3c-7.623-1.496-13.947-7.906-22.429-5.863c0.002-0.938,0.005-1.874,0.006-2.811
			c2.151-0.282,4.315-0.431,6.402,0.29C134.112,110.387,143.348,113.618,152.588,116.833z"/>
		<path fill-rule="evenodd" clip-rule="evenodd" d="M65.042,46.691C53.458,46.779,42.257,45.229,31,44.651
			c-0.835-0.043-1.838-0.048-1.986-1.059c-0.154-1.057,0.807-1.508,1.624-1.356c10.981,2.043,22.313,0.646,33.21,3.417
			C64.231,45.749,64.519,46.222,65.042,46.691z"/>
		<path fill-rule="evenodd" clip-rule="evenodd" d="M143.669,49.6c-10.9,0.4-21.622-1.406-32.397-0.646
			c-1.083,0.077-2.842,0.513-2.614-1.17c0.286-2.106,1.759-0.088,2.56-0.291c6.886-1.748,13.821-0.04,20.718-0.447
			C135.906,46.812,139.849,46.953,143.669,49.6z"/>
		<path fill-rule="evenodd" clip-rule="evenodd" d="M43.653,155.456c-7.406,0-14.947,0-23.119,0
			C28.439,150.724,39.78,150.999,43.653,155.456z"/>
		<path fill-rule="evenodd" clip-rule="evenodd" d="M84.625,43.985c-0.389-5.274,4.22-4.648,7.07-5.539
			c2.629-0.82,5.628,0.741,6.551,3.1c1.363,3.486,0.793,7.105-3.337,8.971c-0.118-0.311-0.255-0.614-0.348-0.932
			c-0.651-2.216,3.879-3.776,1.064-6.008c-2.479-1.967-5.35-0.599-7.993,0.339C86.631,43.939,85.628,43.961,84.625,43.985z"/>
		<path fill-rule="evenodd" clip-rule="evenodd" d="M66.537,107.856c0.018,1.57,0.035,3.143,0.052,4.714
			c-7.62,0.503-14.13,5.135-21.747,5.834C51.108,112.833,59.644,112.029,66.537,107.856z"/>
		<path fill-rule="evenodd" clip-rule="evenodd" d="M172.085,49.962c-8.656,1.294-17.232,0.257-25.809-1.003
			C154.912,47.572,163.525,47.456,172.085,49.962z"/>
		<path fill-rule="evenodd" clip-rule="evenodd" d="M78.745,58.771c7.302-2.079,14.791-0.963,22.195-1.273
			c1.3-0.055,2.78-0.164,2.806,1.834c0-0.001,0.06-0.058,0.06-0.058C99.802,61.422,79.573,59.806,78.745,58.771z"/>
		<path fill-rule="evenodd" clip-rule="evenodd" d="M135.156,66.129c7.703,0.271,14.366,4.386,21.968,6.216
			C153.917,74.035,142.511,70.902,135.156,66.129z"/>
		<path fill-rule="evenodd" clip-rule="evenodd" d="M111.436,60.542c0.338-0.853,0.676-1.707,1.014-2.56
			c6.207,1.111,12.282,2.592,17.742,5.905C123.398,65.12,118.043,59.719,111.436,60.542z"/>
		<path fill-rule="evenodd" clip-rule="evenodd" d="M34.39,59.62c6.075-2.266,11.981-5.204,18.649-5.112
			C47.237,57.862,41.071,59.766,34.39,59.62z"/>
		<path fill-rule="evenodd" clip-rule="evenodd" d="M56.615,37.835c4.801-1.807,9.134-0.587,13.354,1.331
			c1.138,0.517,2.013,1.478,1.435,2.774c-0.662,1.482-2.025,0.894-2.998,0.406C64.646,40.461,60.664,39.191,56.615,37.835z"/>
		<path fill-rule="evenodd" clip-rule="evenodd" d="M30.881,60.341c-4.134,2.521-8.022,3.117-11.636,4.395
			c-0.798,0.282-2.142,0.629-2.404-0.719c-0.218-1.117,0.841-1.766,1.78-2.042C22.34,60.878,25.912,58.804,30.881,60.341z"/>
		<path fill-rule="evenodd" clip-rule="evenodd" d="M73.686,58.902c0.006,0.902,0.013,1.803,0.02,2.705
			c-5.306-0.357-10.259,1.901-15.569,1.94C62.923,60.658,68.063,58.999,73.686,58.902z"/>
		<path fill-rule="evenodd" clip-rule="evenodd" d="M14.697,154.013c-0.395-1.195-1.359-1.341-2.418-1.314
			c0.15-3.67,1.531-6.644,4.82-8.624C17.975,147.851,19.466,151.695,14.697,154.013z"/>
		<path fill-rule="evenodd" clip-rule="evenodd" d="M38.906,31.514c5.137-0.962,9.195,1.459,13.198,4.056
			C47.416,35.124,42.911,34.103,38.906,31.514z"/>
		<path fill-rule="evenodd" clip-rule="evenodd" d="M62.599,156.132c-0.151,1.811-4.059-0.772-2.944,2.519
			c-3.278-0.434-6.558-0.867-9.837-1.301C54.053,155.087,58.353,156.064,62.599,156.132z"/>
		<path fill-rule="evenodd" clip-rule="evenodd" d="M37.359,70.601c3.194-2.454,6.124-3.529,10.214-3.712
			C44.447,69.66,41.535,70.785,37.359,70.601z"/>
		<path fill-rule="evenodd" clip-rule="evenodd" d="M84.625,43.985c1.003-0.023,2.006-0.046,3.008-0.068
			c-0.766,2.462,0.726,4.299,2.783,7.195C85.665,49.742,84.836,47.1,84.625,43.985z"/>
		<path fill-rule="evenodd" clip-rule="evenodd" d="M162.86,76.154c3.251-1.366,5.652,1.643,8.664,1.028
			C167.988,79.619,166.582,79.381,162.86,76.154z"/>
		<path fill-rule="evenodd" clip-rule="evenodd" d="M87.297,161.638c-0.916-0.012-1.832-0.022-2.746-0.035
			c0.322-0.269,0.643-0.536,0.964-0.804c1.533-0.822,0.515-2.361,0.98-3.482C90.455,159.763,90.478,159.885,87.297,161.638z"/>
		<path fill-rule="evenodd" clip-rule="evenodd" d="M34.585,124.021c-0.415-0.417-0.829-0.835-1.244-1.252
			c1.672-1.697,3.834-1.565,6.572-2.458C38.292,123.065,36.443,123.551,34.585,124.021z"/>
		<path fill-rule="evenodd" clip-rule="evenodd" d="M66.626,156.807c-0.806,0.123-1.563,0.082-2.123-0.627
			C65.356,155.897,66.048,156.158,66.626,156.807z"/>
		<path fill-rule="evenodd" clip-rule="evenodd" fill="#808399" d="M74.4,58.8"/>
		<path fill-rule="evenodd" clip-rule="evenodd" fill="#FEFEFE" d="M118.456,109.716c8.481-2.043,14.806,4.367,22.429,5.863
			c3.574,0.7,7.228,1.835,10.778,3c10.297,5.017,14.442,14.421,17.733,25.208c-9.009-0.477-17.782,0.93-26.65-0.762
			c-8.049-1.535-16.234-2.357-24.359-3.494c-0.874,0.023-1.748,0.046-2.622,0.069c-0.386-0.063-0.771-0.124-1.157-0.187
			c-4.698-0.963-9.126-0.541-13.03,2.55c-1.128,0.085-2.381-0.118-3.357,0.311c-2.838,1.244-3.589-0.046-3.579-2.571
			c1.125-0.938,1.313-1.871-0.019-2.796c-0.284-3.469,2.311-4.985,4.596-6.648c3.896-2.838,8.387-4.469,12.885-6.021
			c4.688-1.617,7.384-4.055,5.275-9.552C116.813,113.216,114.545,110.556,118.456,109.716z"/>
		<path fill-rule="evenodd" clip-rule="evenodd" fill="#FEFEFE" d="M119.664,142.588c7.688,0.75,14.85,4.573,22.604,4.432
			c9.192-0.168,18.23,3.24,27.482,0.933c2.636-0.658,3.807,1.069,4.794,3.566c-1.928,0.091-3.532,0.213-5.139,0.229
			c-1.325,0.013-2.598,0.605-2.66,1.771c-0.094,1.764,1.667,1.075,2.66,1.3c2.501,0.563,5.294-0.777,7.648,1.055
			c-0.658,2.425-3.599,1.022-4.743,3.064c2.263,2.268,4.822-0.1,7.235,0.325c-3.311,4.556-7.811,4.39-12.271,3.756
			c-1.574-0.224-2.419,0.708-3.572,1.116c-3.932,1.391-10.076-0.699-12.196-4.681c4.25,0.965,8.312-0.346,12.241,1.069
			c1.442,0.52,2.386-0.309,2.688-1.427c0.415-1.536-1.154-1.05-1.893-1.483c-1.515-0.891-3.094-0.871-4.738-0.941
			c-14.911-0.641-29.659,0.873-44.4,2.941c-3.421,0.479-7.188,0.937-10.856-0.872c3.104-2.393,6.392-1.802,9.559-2.045
			c1.87-0.144,5.144,1.426,5.068-1.806c-0.033-1.44-3.004-3.087-5.656-3.066c-5.59,0.044-11.19-0.273-17.511,2.487
			c1.883-3.308,3.822-5.54,2.74-8.489C105.485,143.222,112.486,142.333,119.664,142.588z M112.613,148.898
			c8.055,0.578,16.115,1.815,24.152-0.165c-9.306-1.428-18.74-0.255-28.03-1.668c-2.22-0.396-4.445-0.803-4.704,2.765
			C106.88,149.101,109.911,151.106,112.613,148.898z"/>
		<path fill-rule="evenodd" clip-rule="evenodd" fill="#FEFEFE" d="M88.508,97.917c-1.284-0.054-2.568-0.107-3.853-0.161
			c-3.726,0.292-2.476,0.161-4.021-1.169c-2.995-3.87-1.997-6.976,2.856-7.332c6.58-0.483,13.218-0.62,19.808,0.377
			c1.958,0.297,4.045,0.053,4.386,2.889c0.348,2.894-1.355,4.2-3.636,5.024c-1.059,0.382-2.268,0.349-3.409,0.503
			C96.596,98.004,92.552,97.96,88.508,97.917z"/>
		<path fill-rule="evenodd" clip-rule="evenodd" fill="#FEFEFE" d="M91.103,111.92c-4.497-0.882-9.477,1.287-12.999-3.188
			c-1.256-1.596-2.156-3.012-0.725-4.776c1.29-1.588,2.839-1.383,4.331-0.154c2.338,1.924,5.089,0.875,7.647,0.97
			c4.461,0.166,8.932,0.055,13.399,0.085c1.28,0.009,2.782-0.258,2.758,1.813c-0.018,1.429,0.182,2.584-1.563,3.621
			C99.742,112.797,95.248,111.268,91.103,111.92z"/>
		<path fill-rule="evenodd" clip-rule="evenodd" fill="#FEFEFE" d="M101.417,67.344c1.558,1.634,4.352,2.713,3.396,5.631
			c-0.96,2.927-3.798,3.675-6.398,3.698c-4.957,0.043-9.917-0.528-14.879-0.589c-2.228-0.026-3.634-1.12-3.843-2.929
			c-0.243-2.106,1.616-2.967,3.49-3.414c1.441-0.342,2.871-0.729,4.306-1.096C94.377,67.257,97.305,66.129,101.417,67.344z"/>
		<path fill-rule="evenodd" clip-rule="evenodd" fill="#FEFEFE" d="M149.425,158.856c-0.293,3.976-1.878,5.354-5.399,4.985
			c-7.766-0.814-15.437,1.286-23.215,1.044c-3.937-0.123-7.871,0.077-12.322-1.906C122.458,161.573,135.726,160.236,149.425,158.856
			z"/>
		<path fill-rule="evenodd" clip-rule="evenodd" d="M119.664,142.588c-7.178-0.256-14.179,0.634-20.914,3.234
			c-0.24-2.152,2.421-2.179,2.825-3.858c3.906-3.091,8.334-3.513,13.032-2.549c0.235,1.001,0.639,0.951,1.157,0.186
			c0.874-0.023,1.748-0.046,2.622-0.069C118.812,140.55,119.238,141.569,119.664,142.588z"/>
		<path fill-rule="evenodd" clip-rule="evenodd" fill="#FEFEFE" d="M87.297,161.638c3.181-1.753,3.158-1.875-0.801-4.321
			c0.465-2.357,1.853-3.596,3.495-1.32c2.047,2.835,4.833,4.714,7.284,7.021c0.6,0.564,1.458,1.17,1.013,2.05
			c-0.557,1.098-1.736,0.92-2.488,0.319C93.281,163.373,89.04,165.326,87.297,161.638z"/>
		<path fill-rule="evenodd" clip-rule="evenodd" fill="#808399" d="M100.64,98.047"/>
		<path fill-rule="evenodd" clip-rule="evenodd" fill="#808399" d="M88.508,97.917"/>
		<path fill-rule="evenodd" clip-rule="evenodd" d="M94.622,136.908c1.331,0.925,1.144,1.858,0.019,2.796
			C94.164,138.775,92.817,137.853,94.622,136.908z"/>
		<path fill-rule="evenodd" clip-rule="evenodd" d="M115.764,139.601c-0.519,0.766-0.922,0.815-1.157-0.186
			C114.993,139.477,115.378,139.539,115.764,139.601z"/>
		<path fill-rule="evenodd" clip-rule="evenodd" d="M108.735,147.065c9.29,1.413,18.725,0.24,28.03,1.668
			c-8.037,1.98-16.098,0.743-24.151,0.165C111.081,148.795,109.782,148.196,108.735,147.065z"/>
		<path fill-rule="evenodd" clip-rule="evenodd" d="M108.735,147.065c1.047,1.131,2.346,1.73,3.879,1.833
			c-2.703,2.208-5.733,0.203-8.583,0.932C104.29,146.262,106.515,146.668,108.735,147.065z"/>
	</g>
	<polyline fill-rule="evenodd" clip-rule="evenodd" points="17.983,149.854 23.305,141.865 20.742,140.22 17.098,144.075 	"/>
	<polyline fill-rule="evenodd" clip-rule="evenodd" points="37.827,122.167 47.774,117.946 46.878,116.812 37.827,120.865 	"/>
</g>
</svg>
