<?xml version="1.0" encoding="utf-8"?>
<!-- Generator: Adobe Illustrator 16.0.0, SVG Export Plug-In . SVG Version: 6.00 Build 0)  -->
<!DOCTYPE svg PUBLIC "-//W3C//DTD SVG 1.1//EN" "http://www.w3.org/Graphics/SVG/1.1/DTD/svg11.dtd">
<svg version="1.1" id="Layer_1" xmlns="http://www.w3.org/2000/svg" xmlns:xlink="http://www.w3.org/1999/xlink" x="0px" y="0px"
	 width="193.516px" height="172.921px" viewBox="0 0 193.516 172.921" enable-background="new 0 0 193.516 172.921"
	 xml:space="preserve">
<g>
	<path fill="#FEFEFE" d="M98.395,23.06c2.285,0.701,4.16,2.772,3.276,5.001c-0.566,1.432-4.323,1.262-5.625,1.273
		c-2.479,0.021-7.772,0.491-10.253,0.46c-1.113-0.013-1.766-1.632-1.87-2.536c-0.12-1.053,4.56-3.274,5.495-3.498
		c0.722-0.171,2.203-0.776,2.92-0.96C95.784,22.107,96.338,22.453,98.395,23.06z"/>
	<g>
		<g>
			<path fill="none" d="M84.656,97.755c1.284,0.054,18.336,0.17,19.395-0.211c2.28-0.824,3.983-2.131,3.637-5.024
				c-0.341-2.836-2.429-2.593-4.387-2.89c-6.59-0.996-13.229-0.859-19.808-0.377c-4.854,0.356-5.853,3.463-2.857,7.332
				C81.62,98.197,83.2,97.761,84.656,97.755z"/>
			<path fill="none" d="M83.535,76.085c4.962,0.061,9.922,0.632,14.879,0.589c2.602-0.022,5.438-0.771,6.397-3.698
				c0.956-2.917-1.838-3.997-3.396-5.631c-4.781-1.057-9.33,0.387-13.929,1.301c-1.435,0.367-2.864,0.754-4.306,1.096
				c-1.875,0.446-3.732,1.308-3.49,3.414C79.901,74.966,81.307,76.059,83.535,76.085z"/>
			<path fill="none" d="M120.81,164.884c7.777,0.242,15.448-1.857,23.215-1.043c3.521,0.369,5.106-1.01,5.399-4.985
				c-13.698,1.38-26.968,2.718-40.938,4.123C112.939,164.962,116.874,164.761,120.81,164.884z"/>
			<path fill="none" d="M103.953,110.291c1.743-1.037,1.545-2.191,1.563-3.621c0.023-2.069-1.479-1.805-2.759-1.813
				c-4.467-0.029-8.938,0.081-13.398-0.085c-2.559-0.097-5.311,0.954-7.646-0.972c-1.491-1.229-3.042-1.434-4.331,0.154
				c-1.432,1.767-0.53,3.182,0.726,4.776c3.521,4.478,8.5,2.308,12.997,3.188C95.248,111.268,99.742,112.796,103.953,110.291z"/>
			<g>
				<path fill="none" d="M84.656,97.755c1.284,0.054,18.336,0.17,19.395-0.211c2.28-0.824,3.983-2.131,3.637-5.024
					c-0.341-2.836-2.429-2.593-4.387-2.89c-6.59-0.996-13.229-0.859-19.808-0.377c-4.854,0.356-5.853,3.463-2.857,7.332
					C81.62,98.197,83.2,97.761,84.656,97.755z"/>
				<path fill="none" d="M83.535,76.085c4.962,0.061,9.922,0.632,14.879,0.589c2.602-0.022,5.438-0.771,6.397-3.698
					c0.956-2.917-1.838-3.997-3.396-5.631c-4.781-1.057-9.33,0.387-13.929,1.301c-1.435,0.367-2.864,0.754-4.306,1.096
					c-1.875,0.446-3.732,1.308-3.49,3.414C79.901,74.966,81.307,76.059,83.535,76.085z"/>
				<path fill="none" d="M120.81,164.884c7.777,0.242,15.448-1.857,23.215-1.043c3.521,0.369,5.106-1.01,5.399-4.985
					c-13.698,1.38-26.968,2.718-40.938,4.123C112.939,164.962,116.874,164.761,120.81,164.884z"/>
				<path fill="none" d="M103.953,110.291c1.743-1.037,1.545-2.191,1.563-3.621c0.023-2.069-1.479-1.805-2.759-1.813
					c-4.467-0.029-8.938,0.081-13.398-0.085c-2.559-0.097-5.311,0.954-7.646-0.972c-1.491-1.229-3.042-1.434-4.331,0.154
					c-1.432,1.767-0.53,3.182,0.726,4.776c3.521,4.478,8.5,2.308,12.997,3.188C95.248,111.268,99.742,112.796,103.953,110.291z"/>
			</g>
			<path fill="#1A316E" d="M103.536,58.863c0.019-0.002,0.035-0.003,0.055-0.005c0-0.018,0.009-0.034,0.006-0.052L103.536,58.863z"
				/>
		</g>
		<path fill="#1A316E" stroke="#FCFCFC" stroke-width="0.75" stroke-miterlimit="10" d="M115.616,24.541
			c6.896-1.27,13.859-5.401,19.981-8.646C145,10.913,154.828,5.26,165.019,1.477c1.499-0.556,3.54-1.374,5.18-1.266
			c2.546,0.167,1.695,1.84-0.262,2.569c-4.568,1.701-9.278,2.991-13.848,4.691c-2.243,0.835-4.461,1.769-6.573,2.897
			c-0.929,0.497-4.584,3.735-5.387,3.659c5.17,0.495,11.088-2.514,15.753-4.414c4.811-1.959,9.795-3.897,15.082-3.63
			c-3.573-0.18-7.328,2.477-10.567,3.76c-6.06,2.4-12.443,4.599-18.789,6.443c-4.563,1.326-9.331,2.29-13.877,3.811
			c-1.985,0.665-3.985,1.389-5.785,2.476c-1.521,0.919-2.934,2.206-4.756,2.468C119.313,25.212,117.498,24.194,115.616,24.541z"/>
		<path fill="#1A316E" stroke="#FCFCFC" stroke-width="0.75" stroke-miterlimit="10" d="M111.944,39.405
			c2.567-1.091,5.687-0.713,8.401-0.771c3.019-0.064,6.043-0.27,9.055-0.477c8.337-0.575,16.617-2.012,24.932-2.862
			c0.413-0.042,0.729-0.082,1.003,0.182c-2.09,2.899-6.528,3.242-9.767,3.609c-5.646,0.64-11.263,1.494-16.884,2.313
			C123.397,42.167,116.01,44.132,111.944,39.405z"/>
		<path fill="#1A316E" stroke="#FCFCFC" stroke-width="0.75" stroke-miterlimit="10" d="M129.063,27.339
			c6.559-1.155,13.076-2.767,19.686-3.332c6.252-0.534,12.474-1.132,18.672-2.077c1.457-0.222,2.982-0.131,4.464-0.014
			c1.18,0.094,2.483,0.549,2.323,1.992c-0.155,1.398-1.521,0.88-2.412,0.89c-11.544,0.136-22.976,1.166-34.285,3.646
			c-2.649,0.581-5.537,0.086-8.316,0.086C129.149,28.133,129.106,27.737,129.063,27.339z"/>
		<g>
			<path fill="none" d="M86.351,25.155c-1.334,0.757-2.568,1.619-2.063,3.342c0.407,1.384,1.697,1.443,3.064,1.367
				c4.442-0.249,9.116-0.806,13.558-1.083c1.805-2.119-0.025-3.573-1.216-5.146L88.75,19.698l10.944,3.939
				C96.305,22.417,91.755,23.761,86.351,25.155z"/>
			<g>
				<path fill="none" d="M99.68,23.632l0.015,0.005c-0.009-0.003-0.018-0.005-0.024-0.008l-1.482-0.358
					c-3.188-0.469-7.195,0.687-11.836,1.884c-1.334,0.757-2.568,1.619-2.063,3.342c0.407,1.384,1.697,1.443,3.064,1.367
					c4.442-0.249,9.116-0.806,13.558-1.083c1.805-2.119-0.025-3.573-1.216-5.146L99.68,23.632z"/>
				<path fill="#1A316E" stroke="#FCFCFC" stroke-width="0.75" stroke-miterlimit="10" d="M107.834,25.68
					c-2.646-3.197-6.785-4.087-9.628-6.739c-3.681-3.433-8.114-1.678-11.019,1.675h0.001c-3.212,1.947-6.067,4.14-8.294,7.658
					c-2.237,3.537-0.217,3.956,1.771,4.122c7.059,0.592,14.192,1.287,21.008-1.614v-0.001c1.563-0.345,3.118-0.901,4.699-0.994
					C110.354,29.555,109.972,28.264,107.834,25.68z M100.911,28.781c-4.441,0.278-9.114,0.834-13.558,1.083
					c-1.367,0.076-2.657,0.017-3.064-1.367c-0.507-1.723,0.729-2.585,2.063-3.342c4.641-1.197,8.648-2.354,11.836-1.884l1.482,0.358
					c0.008,0.003,0.017,0.005,0.024,0.008l-0.015-0.005l0.016,0.004C100.885,25.208,102.716,26.662,100.911,28.781z"/>
			</g>
		</g>
		<path fill="#1A316E" stroke="#FCFCFC" stroke-width="0.75" stroke-miterlimit="10" d="M143.291,49.405
			c-1.252-0.328-2.475,0.058-3.728,0.143c-2.369,0.161-4.747-0.017-7.113-0.133c-4.364-0.213-8.738-0.367-13.107-0.227
			c-2.327,0.074-9.053,1.725-10.636-0.691c-1.329-2.028,4.578-1.251,5.632-1.311c5.861-0.333,11.741,0.207,17.598-0.139
			C135.664,46.826,140.252,46.926,143.291,49.405z"/>
		<path fill="#1A316E" d="M43.653,155.457c-7.405,0-14.946,0-23.118,0C28.439,150.724,39.78,151,43.653,155.457z"/>
		<path fill="#1A316E" stroke="#FCFCFC" stroke-width="0.75" stroke-miterlimit="10" d="M172.085,49.962
			c-8.655,1.294-17.231,0.257-25.81-1.003C154.912,47.572,163.525,47.456,172.085,49.962z"/>
		<g>
			<path fill="none" d="M101.416,67.345c-4.781-1.057-9.33,0.387-13.929,1.301c-1.435,0.367-2.864,0.754-4.306,1.096
				c-1.875,0.446-3.732,1.308-3.49,3.414c0.209,1.81,1.615,2.903,3.844,2.929c4.962,0.061,9.922,0.632,14.879,0.589
				c2.602-0.022,5.438-0.771,6.397-3.698C105.768,70.059,102.974,68.979,101.416,67.345z"/>
			<path fill="none" d="M103.953,110.291c1.743-1.037,1.545-2.191,1.563-3.621c0.023-2.069-1.479-1.805-2.759-1.813
				c-4.467-0.029-8.938,0.081-13.398-0.085c-2.559-0.097-5.311,0.954-7.646-0.972c-1.491-1.229-3.042-1.434-4.331,0.154
				c-1.432,1.767-0.53,3.182,0.726,4.776c3.521,4.478,8.5,2.308,12.997,3.188C95.248,111.268,99.742,112.796,103.953,110.291z"/>
			<path fill="none" d="M83.492,89.253c-4.854,0.356-5.853,3.463-2.857,7.332c0.985,1.61,2.565,1.176,4.021,1.17
				c1.284,0.054,18.336,0.17,19.395-0.211c2.28-0.824,3.983-2.131,3.637-5.024c-0.341-2.836-2.429-2.593-4.387-2.89
				C96.71,88.634,90.072,88.771,83.492,89.253z"/>
			<path fill="none" d="M120.81,164.884c7.777,0.242,15.448-1.857,23.215-1.043c3.521,0.369,5.106-1.01,5.399-4.985
				c-13.698,1.38-26.968,2.718-40.938,4.123C112.939,164.962,116.874,164.761,120.81,164.884z"/>
		</g>
		<path fill="#1A316E" stroke="#FCFCFC" stroke-width="0.75" stroke-miterlimit="10" d="M135.156,66.129
			c7.702,0.271,14.365,4.386,21.968,6.216C153.917,74.035,142.511,70.902,135.156,66.129z"/>
		<g>
			<path fill="#1A316E" stroke="#FCFCFC" stroke-width="0.75" stroke-miterlimit="10" d="M18.726,13.114
				c14.657,4.853,29.312,9.716,44.012,14.434c1.101,0.354,3.292,1.354,3.625-1.023c0.333-2.375-2.104-1.836-3.255-2.054
				C50.187,22.026,38.337,16.428,26.098,12c-2.765-1-5.369-1.406-8.22-0.911C17.574,12.448,18.106,12.911,18.726,13.114z"/>
			<path fill="#1A316E" stroke="#FCFCFC" stroke-width="0.75" stroke-miterlimit="10" d="M63.848,45.653
				c-10.896-2.771-22.229-1.374-33.21-3.417c-0.817-0.152-1.778,0.299-1.624,1.356c0.147,1.011,1.15,1.016,1.985,1.059
				c11.257,0.578,22.458,2.128,34.042,2.04C64.519,46.222,64.231,45.749,63.848,45.653z"/>
			<path fill="#1A316E" stroke="#FCFCFC" stroke-width="0.75" stroke-miterlimit="10" d="M53.039,54.508
				c-6.668-0.092-12.574,2.846-18.648,5.112C41.071,59.766,47.237,57.862,53.039,54.508z"/>
			<path fill="#1A316E" stroke="#FCFCFC" stroke-width="0.75" stroke-miterlimit="10" d="M56.695,37.873
				c3.421,1.075,6.855,2.227,10.12,3.716c0.963,0.439,2.762,1.426,3.836,1.108c2.444-0.723,0.293-3.039-0.848-3.726
				c-1.771-1.067-4.04-1.522-6.068-1.828C61.379,36.788,59.016,37.705,56.695,37.873z"/>
			<path fill="#1A316E" stroke="#FCFCFC" stroke-width="0.75" stroke-miterlimit="10" d="M18.621,61.975
				c-0.938,0.276-1.998,0.925-1.78,2.042c0.263,1.348,1.605,1.001,2.404,0.719c3.613-1.278,7.502-1.874,11.636-4.395
				C25.912,58.804,22.34,60.878,18.621,61.975z"/>
			<g>
				<path fill="none" d="M83.535,76.085c4.962,0.061,9.922,0.632,14.879,0.589c2.602-0.022,5.438-0.771,6.397-3.698
					c0.956-2.917-1.838-3.997-3.396-5.631c-4.781-1.057-9.33,0.387-13.929,1.301c-1.435,0.367-2.864,0.754-4.306,1.096
					c-1.875,0.446-3.732,1.308-3.49,3.414C79.901,74.966,81.307,76.059,83.535,76.085z"/>
				<path fill="none" d="M84.656,97.755c1.284,0.054,18.336,0.17,19.395-0.211c2.28-0.824,3.983-2.131,3.637-5.024
					c-0.341-2.836-2.429-2.593-4.387-2.89c-6.59-0.996-13.229-0.859-19.808-0.377c-4.854,0.356-5.853,3.463-2.857,7.332
					C81.62,98.197,83.2,97.761,84.656,97.755z"/>
				<path fill="none" d="M103.953,110.291c1.743-1.037,1.545-2.191,1.563-3.621c0.023-2.069-1.479-1.805-2.759-1.813
					c-4.467-0.029-8.938,0.081-13.398-0.085c-2.559-0.097-5.311,0.954-7.646-0.972c-1.491-1.229-3.042-1.434-4.331,0.154
					c-1.432,1.767-0.53,3.182,0.726,4.776c3.521,4.478,8.5,2.308,12.997,3.188C95.248,111.268,99.742,112.796,103.953,110.291z"/>
				<path fill="none" d="M120.81,164.884c7.777,0.242,15.448-1.857,23.215-1.043c3.521,0.369,5.106-1.01,5.399-4.985
					c-13.698,1.38-26.968,2.718-40.938,4.123C112.939,164.962,116.874,164.761,120.81,164.884z"/>
				<g>
					<path fill="none" d="M83.535,76.085c4.962,0.061,9.922,0.632,14.879,0.589c2.602-0.022,5.438-0.771,6.397-3.698
						c0.956-2.917-1.838-3.997-3.396-5.631c-4.781-1.057-9.33,0.387-13.929,1.301c-1.435,0.367-2.864,0.754-4.306,1.096
						c-1.875,0.446-3.732,1.308-3.49,3.414C79.901,74.966,81.307,76.059,83.535,76.085z"/>
					<path fill="none" d="M103.953,110.291c1.743-1.037,1.545-2.191,1.563-3.621c0.023-2.069-1.479-1.805-2.759-1.813
						c-4.467-0.029-8.938,0.081-13.398-0.085c-2.559-0.097-5.311,0.954-7.646-0.972c-1.491-1.229-3.042-1.434-4.331,0.154
						c-1.432,1.767-0.53,3.182,0.726,4.776c3.521,4.478,8.5,2.308,12.997,3.188C95.248,111.268,99.742,112.796,103.953,110.291z"/>
					<path fill="none" d="M84.656,97.755c1.284,0.054,18.336,0.17,19.395-0.211c2.28-0.824,3.983-2.131,3.637-5.024
						c-0.341-2.836-2.429-2.593-4.387-2.89c-6.59-0.996-13.229-0.859-19.808-0.377c-4.854,0.356-5.853,3.463-2.857,7.332
						C81.62,98.197,83.2,97.761,84.656,97.755z"/>
					<path fill="none" d="M120.81,164.884c7.777,0.242,15.448-1.857,23.215-1.043c3.521,0.369,5.106-1.01,5.399-4.985
						c-13.698,1.38-26.968,2.718-40.938,4.123C112.939,164.962,116.874,164.761,120.81,164.884z"/>
				</g>
			</g>
			<path fill="#1A316E" stroke="#FCFCFC" stroke-width="0.75" stroke-miterlimit="10" d="M52.104,35.57
				c-4.003-2.597-8.062-5.018-13.198-4.056C42.911,34.103,47.416,35.124,52.104,35.57z"/>
			<path fill="#1A316E" stroke="#FCFCFC" stroke-width="0.75" stroke-miterlimit="10" d="M47.573,66.889
				c-4.091,0.183-7.021,1.258-10.215,3.712C41.535,70.785,44.447,69.66,47.573,66.889z"/>
		</g>
		<path fill="#1A316E" stroke="#FCFCFC" stroke-width="0.75" stroke-miterlimit="10" d="M98.246,41.546
			c-0.923-2.359-3.922-3.92-6.552-3.1c-2.85,0.891-7.459,0.265-7.069,5.539c0.211,3.115,1.04,5.757,5.791,7.127
			c-2.058-2.896-3.549-4.733-2.783-7.195h-0.001c0,0,0,0,0-0.001c2.644-0.938,5.515-2.306,7.993-0.339
			c2.814,2.232-1.715,3.792-1.063,6.008c0.093,0.318,0.229,0.621,0.349,0.932C99.039,48.651,99.609,45.032,98.246,41.546z"/>
		<path fill="#1A316E" stroke="#FCFCFC" stroke-width="0.75" stroke-miterlimit="10" d="M162.86,76.154
			c2.849-1.196,5.485,2.249,8.294,1.238C168.089,79.867,165.487,78.432,162.86,76.154z"/>
		<path fill="#808399" d="M74.4,58.8"/>
		<path fill="#FEFEFE" d="M149.425,158.856c-0.293,3.976-1.878,5.354-5.398,4.985c-7.767-0.814-15.438,1.285-23.215,1.043
			c-3.938-0.122-7.871,0.078-12.321-1.905C122.458,161.574,135.726,160.236,149.425,158.856z"/>
		<path fill="#808399" d="M100.64,98.046"/>
		<path fill="#808399" d="M88.508,97.917"/>
	</g>
	<g>
		<path fill="none" d="M84.656,97.755c1.284,0.054,18.336,0.17,19.395-0.211c2.28-0.824,3.983-2.131,3.637-5.024
			c-0.341-2.836-2.429-2.593-4.387-2.89c-6.59-0.996-13.229-0.859-19.808-0.377c-4.854,0.356-5.853,3.463-2.857,7.332
			C81.62,98.197,83.2,97.761,84.656,97.755z"/>
		<path fill="none" d="M103.953,110.291c1.743-1.037,1.545-2.191,1.563-3.621c0.023-2.069-1.479-1.805-2.759-1.813
			c-4.467-0.029-8.938,0.081-13.398-0.085c-2.559-0.097-5.311,0.954-7.646-0.972c-1.491-1.229-3.042-1.434-4.331,0.154
			c-1.432,1.767-0.53,3.182,0.726,4.776c3.521,4.478,8.5,2.308,12.997,3.188C95.248,111.268,99.742,112.796,103.953,110.291z"/>
		<path fill="none" d="M83.535,76.085c4.962,0.061,9.922,0.632,14.879,0.589c2.602-0.022,5.438-0.771,6.397-3.698
			c0.956-2.917-1.838-3.997-3.396-5.631c-4.781-1.057-9.33,0.387-13.929,1.301c-1.435,0.367-2.864,0.754-4.306,1.096
			c-1.875,0.446-3.732,1.308-3.49,3.414C79.901,74.966,81.307,76.059,83.535,76.085z"/>
		<path fill="none" d="M120.81,164.884c7.777,0.242,15.448-1.857,23.215-1.043c3.521,0.369,5.106-1.01,5.399-4.985
			c-13.698,1.38-26.968,2.718-40.938,4.123C112.939,164.962,116.874,164.761,120.81,164.884z"/>
		<g>
			<path fill="none" d="M83.535,76.085c4.962,0.061,9.922,0.632,14.879,0.589c2.602-0.022,5.438-0.771,6.397-3.698
				c0.956-2.917-1.838-3.997-3.396-5.631c-4.781-1.057-9.33,0.387-13.929,1.301c-1.435,0.367-2.864,0.754-4.306,1.096
				c-1.875,0.446-3.732,1.308-3.49,3.414C79.901,74.966,81.307,76.059,83.535,76.085z"/>
			<path fill="none" d="M84.656,97.755c1.284,0.054,18.336,0.17,19.395-0.211c2.28-0.824,3.983-2.131,3.637-5.024
				c-0.341-2.836-2.429-2.593-4.387-2.89c-6.59-0.996-13.229-0.859-19.808-0.377c-4.854,0.356-5.853,3.463-2.857,7.332
				C81.62,98.197,83.2,97.761,84.656,97.755z"/>
			<path fill="none" d="M120.81,164.884c7.777,0.242,15.448-1.857,23.215-1.043c3.521,0.369,5.106-1.01,5.399-4.985
				c-13.698,1.38-26.968,2.718-40.938,4.123C112.939,164.962,116.874,164.761,120.81,164.884z"/>
			<path fill="none" d="M103.953,110.291c1.743-1.037,1.545-2.191,1.563-3.621c0.023-2.069-1.479-1.805-2.759-1.813
				c-4.467-0.029-8.938,0.081-13.398-0.085c-2.559-0.097-5.311,0.954-7.646-0.972c-1.491-1.229-3.042-1.434-4.331,0.154
				c-1.432,1.767-0.53,3.182,0.726,4.776c3.521,4.478,8.5,2.308,12.997,3.188C95.248,111.268,99.742,112.796,103.953,110.291z"/>
			<g>
				<path fill="none" d="M83.535,76.085c4.962,0.061,9.922,0.632,14.879,0.589c2.602-0.022,5.438-0.771,6.397-3.698
					c0.956-2.917-1.838-3.997-3.396-5.631c-4.781-1.057-9.33,0.387-13.929,1.301c-1.435,0.367-2.864,0.754-4.306,1.096
					c-1.875,0.446-3.732,1.308-3.49,3.414C79.901,74.966,81.307,76.059,83.535,76.085z"/>
				<path fill="none" d="M84.656,97.755c1.284,0.054,18.336,0.17,19.395-0.211c2.28-0.824,3.983-2.131,3.637-5.024
					c-0.341-2.836-2.429-2.593-4.387-2.89c-6.59-0.996-13.229-0.859-19.808-0.377c-4.854,0.356-5.853,3.463-2.857,7.332
					C81.62,98.197,83.2,97.761,84.656,97.755z"/>
				<path fill="none" d="M91.103,111.919c4.146-0.651,8.64,0.877,12.851-1.629c1.743-1.037,1.545-2.192,1.563-3.621
					c0.023-2.07-1.479-1.805-2.759-1.813c-4.467-0.03-8.938,0.081-13.398-0.085c-2.559-0.096-5.311,0.954-7.646-0.971
					c-1.491-1.229-3.042-1.434-4.331,0.154c-1.432,1.766-0.53,3.182,0.726,4.775C81.626,113.208,86.606,111.039,91.103,111.919z"/>
				<path fill="none" d="M120.81,164.884c7.777,0.242,15.448-1.857,23.215-1.043c3.521,0.369,5.106-1.01,5.399-4.985
					c-13.698,1.38-26.968,2.718-40.938,4.123C112.939,164.962,116.874,164.761,120.81,164.884z"/>
				<path fill="none" d="M97.276,163.015c-2.449-2.309-5.235-4.188-7.283-7.021c-1.644-2.275-3.03-1.037-3.495,1.32
					c-0.467,1.124,0.552,2.663-0.98,3.484c0.016-5.354-0.28-5.625-4.97-3.791c-6.813,2.664-13.717,3.763-20.892,1.644
					c-1.114-3.291,2.794-0.708,2.944-2.519c0.635,0.016,1.271,0.031,1.903,0.048c0.562,0.709,1.316,0.75,2.123,0.627
					c5.644,0.056,10.496-2.792,15.703-4.329c0.714-0.211,0.323-1.105,0.09-1.697c0.69-0.697,1.381-1.395,2.071-2.091
					c0.161,0.041,0.32,0.095,0.483,0.12c1.822,0.29,3.241,3.813,5.021,1.619c1.736-2.143-1.941-2.777-2.619-4.451
					c-0.131-1.512,0.768-2.057,2.076-2.219c4.106-0.846,1.444-4.088,2.062-6.141c0.522-1.742-1.034-2.074-2.471-1.955
					c-1.596,0.133-2.546-0.361-2.275-2.164c4.007-3.063,4.007-3.063,0.92-4.719c-5.421-2.726-11.261-4.314-17.056-5.895
					c-4.636-1.268-5.813-2.959-3.855-7.461c0.434-0.994,1.304-1.896,0.04-2.721c-5.974,0.615-11.91,3.555-17.871,4.991l0,0
					l-10.088,4.056c-1,1.111-2.062,1.617-3.142,1.955c0,0.002,0,0.002,0,0.002c-2.959,4.973-7.298,10.066-10.868,14.642
					c-1.25,1.603,0.336,2.133,2.062,2.649c3.305,0.992,7.046,0.104,10.075,2.201c-4.858,0.469-9.685,1-14.428-0.082l-4.686,7.863
					l-0.001-0.007c-0.591,1.202-1.579,2.261-3.174,3.036l0,0c-1.246,3.115,0.868,6.76,4.502,7.675
					c0.632,0.159,1.322,0.163,1.979,0.127c13.231-0.731,26.38,1.532,39.611,1.052c5.688-0.207,11.395-0.068,17.086,0.096
					c2.385,0.068,4.543-0.467,6.678-1.361c0.914,0.013,1.83,0.021,2.746,0.033c1.742,3.689,5.982,1.734,8.502,3.75
					c0.752,0.602,1.933,0.777,2.488-0.318C98.734,164.185,97.876,163.58,97.276,163.015z"/>
				<g>
					<path fill="none" d="M84.656,97.755c1.284,0.054,18.336,0.17,19.395-0.211c2.28-0.824,3.983-2.131,3.637-5.024
						c-0.341-2.836-2.429-2.593-4.387-2.89c-6.59-0.996-13.229-0.859-19.808-0.377c-4.854,0.356-5.853,3.463-2.857,7.332
						C81.62,98.197,83.2,97.761,84.656,97.755z"/>
					<path fill="none" d="M91.103,111.919c4.146-0.651,8.64,0.877,12.851-1.629c1.743-1.037,1.545-2.192,1.563-3.621
						c0.023-2.07-1.479-1.805-2.759-1.813c-4.467-0.03-8.938,0.081-13.398-0.085c-2.559-0.096-5.311,0.954-7.646-0.971
						c-1.491-1.229-3.042-1.434-4.331,0.154c-1.432,1.766-0.53,3.182,0.726,4.775C81.626,113.208,86.606,111.039,91.103,111.919z"/>
					<path fill="none" d="M83.535,76.085c4.962,0.061,9.922,0.632,14.879,0.589c2.602-0.022,5.438-0.771,6.397-3.698
						c0.956-2.917-1.838-3.997-3.396-5.631c-4.781-1.057-9.33,0.387-13.929,1.301c-1.435,0.367-2.864,0.754-4.306,1.096
						c-1.875,0.446-3.732,1.308-3.49,3.414C79.901,74.966,81.307,76.059,83.535,76.085z"/>
					<path fill="none" d="M97.276,163.015c-2.449-2.309-5.235-4.188-7.283-7.021c-1.644-2.275-3.03-1.037-3.495,1.32
						c-0.467,1.124,0.552,2.663-0.98,3.484c0.016-5.354-0.28-5.625-4.97-3.791c-6.813,2.664-13.717,3.763-20.892,1.644
						c-1.114-3.291,2.794-0.708,2.944-2.519c0.635,0.016,1.271,0.031,1.903,0.048c0.562,0.709,1.316,0.75,2.123,0.627
						c5.644,0.056,10.496-2.792,15.703-4.329c0.714-0.211,0.323-1.105,0.09-1.697c0.69-0.697,1.381-1.395,2.071-2.091
						c0.161,0.041,0.32,0.095,0.483,0.12c1.822,0.29,3.241,3.813,5.021,1.619c1.736-2.143-1.941-2.777-2.619-4.451
						c-0.131-1.512,0.768-2.057,2.076-2.219c4.106-0.846,1.444-4.088,2.062-6.141c0.522-1.742-1.034-2.074-2.471-1.955
						c-1.596,0.133-2.546-0.361-2.275-2.164c4.007-3.063,4.007-3.063,0.92-4.719c-5.421-2.726-11.261-4.314-17.056-5.895
						c-4.636-1.268-5.813-2.959-3.855-7.461c0.434-0.994,1.304-1.896,0.04-2.721c-5.974,0.615-11.91,3.555-17.871,4.991l0,0
						l-10.088,4.056c-1,1.111-2.062,1.617-3.142,1.955c0,0.002,0,0.002,0,0.002c-2.959,4.973-7.298,10.066-10.868,14.642
						c-1.25,1.603,0.336,2.133,2.062,2.649c3.305,0.992,7.046,0.104,10.075,2.201c-4.858,0.469-9.685,1-14.428-0.082l-4.686,7.863
						l-0.001-0.007c-0.591,1.202-1.579,2.261-3.174,3.036c-1.246,3.115,0.868,6.76,4.502,7.675c0.632,0.159,1.322,0.163,1.979,0.127
						c13.231-0.731,26.38,1.532,39.611,1.052c5.688-0.207,11.395-0.068,17.086,0.096c2.385,0.068,4.543-0.467,6.678-1.361
						c0.914,0.013,1.83,0.021,2.746,0.033c1.742,3.689,5.982,1.734,8.502,3.75c0.752,0.602,1.933,0.777,2.488-0.318
						C98.734,164.185,97.876,163.58,97.276,163.015z"/>
					<path fill="none" d="M120.81,164.884c7.777,0.242,15.448-1.857,23.215-1.043c3.521,0.369,5.106-1.01,5.399-4.985
						c-13.698,1.38-26.968,2.718-40.938,4.123C112.939,164.962,116.874,164.761,120.81,164.884z"/>
					<g>
						<path fill="none" d="M84.656,97.755c1.284,0.054,18.336,0.17,19.395-0.211c2.28-0.824,3.983-2.131,3.637-5.024
							c-0.341-2.836-2.429-2.593-4.387-2.89c-6.59-0.996-13.229-0.859-19.808-0.377c-4.854,0.356-5.853,3.463-2.857,7.332
							C81.62,98.197,83.2,97.761,84.656,97.755z"/>
						<path fill="none" d="M91.103,111.919c4.146-0.651,8.64,0.877,12.851-1.629c1.743-1.037,1.545-2.192,1.563-3.621
							c0.023-2.07-1.479-1.805-2.759-1.813c-4.467-0.03-8.938,0.081-13.398-0.085c-2.559-0.096-5.311,0.954-7.646-0.971
							c-1.491-1.229-3.042-1.434-4.331,0.154c-1.432,1.766-0.53,3.182,0.726,4.775C81.626,113.208,86.606,111.039,91.103,111.919z"
							/>
						<path fill="none" d="M83.535,76.085c4.962,0.061,9.922,0.632,14.879,0.589c2.602-0.022,5.438-0.771,6.397-3.698
							c0.956-2.917-1.838-3.997-3.396-5.631c-4.781-1.057-9.33,0.387-13.929,1.301c-1.435,0.367-2.864,0.754-4.306,1.096
							c-1.875,0.446-3.732,1.308-3.49,3.414C79.901,74.966,81.307,76.059,83.535,76.085z"/>
						<path fill="none" d="M97.276,163.015c-2.449-2.309-5.235-4.188-7.283-7.021c-1.644-2.275-3.03-1.037-3.495,1.32
							c-0.467,1.124,0.552,2.663-0.98,3.484c0.016-5.354-0.28-5.625-4.97-3.791c-6.813,2.664-13.717,3.763-20.892,1.644
							c-1.114-3.291,2.794-0.708,2.944-2.519c0.635,0.016,1.271,0.031,1.903,0.048c0.562,0.709,1.316,0.75,2.123,0.627
							c5.644,0.056,10.496-2.792,15.703-4.329c0.714-0.211,0.323-1.105,0.09-1.697c0.69-0.697,1.381-1.395,2.071-2.091
							c0.161,0.041,0.32,0.095,0.483,0.12c1.822,0.29,3.241,3.813,5.021,1.619c1.411-1.741-0.752-2.486-1.978-3.604l0,0
							c-2.468-2.52-6.306-3.658-9.59-4.322c-9.535-1.924-18.979-1.877-28.474-0.047c-2.625,0.506-5.26,0.586-9.24,0.06
							c5.281-2.868,9.941-4.337,14.66-4.511c5.551-0.205,11.308-0.908,16.672,1.523c2.354,1.067,4.32-1.273,6.75-0.558
							c3.653,1.079,8.16,2.153,11.224,4.635c3.266-1.026,0.91-4.041,1.494-5.987c0.522-1.742-1.034-2.074-2.471-1.955
							c-1.596,0.133-2.546-0.361-2.275-2.164c4.007-3.063,4.007-3.063,0.92-4.719c-5.421-2.726-11.261-4.314-17.056-5.895
							c-4.636-1.268-5.813-2.959-3.855-7.461c0.434-0.994,1.304-1.896,0.04-2.721c-5.974,0.615-11.91,3.555-17.871,4.991l0,0
							l-10.088,4.056c-1,1.111-2.062,1.617-3.142,1.955c0,0.002,0,0.002,0,0.002c-2.959,4.973-7.298,10.066-10.868,14.642
							c-1.25,1.603,0.336,2.133,2.062,2.649c3.305,0.992,7.046,0.104,10.075,2.201c-4.858,0.469-9.685,1-14.428-0.082l-4.686,7.863
							l-0.001-0.007c-0.591,1.202-1.579,2.261-3.174,3.036c-1.246,3.115,0.868,6.76,4.503,7.675
							c0.631,0.159,1.321,0.163,1.979,0.127c13.231-0.731,26.38,1.532,39.611,1.052c5.688-0.207,11.395-0.068,17.086,0.096
							c2.385,0.068,4.543-0.467,6.678-1.361c0.914,0.013,1.83,0.021,2.746,0.033c1.742,3.689,5.983,1.734,8.502,3.75
							c0.752,0.602,1.933,0.777,2.488-0.318C98.734,164.185,97.876,163.58,97.276,163.015z"/>
						<path fill="none" d="M120.81,164.884c7.777,0.242,15.448-1.857,23.215-1.043c3.521,0.369,5.106-1.01,5.399-4.985
							c-13.698,1.38-26.968,2.718-40.938,4.123C112.939,164.962,116.874,164.761,120.81,164.884z"/>
						<g>
							<path fill="none" d="M84.656,97.755c1.284,0.054,18.336,0.17,19.395-0.211c2.28-0.824,3.983-2.131,3.637-5.024
								c-0.341-2.836-2.429-2.593-4.387-2.89c-6.59-0.996-13.229-0.859-19.808-0.377c-4.854,0.356-5.853,3.463-2.857,7.332
								C81.62,98.197,83.2,97.761,84.656,97.755z"/>
							<path fill="none" d="M83.535,76.085c4.962,0.061,9.922,0.632,14.879,0.589c2.602-0.022,5.438-0.771,6.397-3.698
								c0.956-2.917-1.838-3.997-3.396-5.631c-4.781-1.057-9.33,0.387-13.929,1.301c-1.435,0.367-2.864,0.754-4.306,1.096
								c-1.875,0.446-3.732,1.308-3.49,3.414C79.901,74.966,81.307,76.059,83.535,76.085z"/>
							<path fill="none" d="M91.103,111.919c4.146-0.651,8.64,0.877,12.851-1.629c1.743-1.037,1.545-2.192,1.563-3.621
								c0.023-2.07-1.479-1.805-2.759-1.813c-4.467-0.03-8.938,0.081-13.398-0.085c-2.559-0.096-5.311,0.954-7.646-0.971
								c-1.491-1.229-3.042-1.434-4.331,0.154c-1.432,1.766-0.53,3.182,0.726,4.775C81.626,113.208,86.606,111.039,91.103,111.919z"
								/>
							<path fill="none" d="M97.276,163.015c-2.449-2.309-5.235-4.188-7.283-7.021c-1.644-2.275-3.03-1.037-3.495,1.32
								c-0.467,1.124,0.552,2.663-0.98,3.484c0.016-5.354-0.28-5.625-4.97-3.791c-6.813,2.664-13.717,3.763-20.892,1.644
								c-1.114-3.291,2.794-0.708,2.944-2.519c0.635,0.016,1.271,0.031,1.903,0.048c0.562,0.709,1.316,0.75,2.123,0.627
								c5.644,0.056,10.496-2.792,15.703-4.329c0.714-0.211,0.323-1.105,0.09-1.697c0.032-0.031,0.063-0.064,0.096-0.097
								c-5.64-1.582-12.228-1.076-17.772-0.313c-7.786,1.07-15.557,0.444-23.332,0.301c-1.161-0.021-2.307-0.903-4.472-1.814
								c6.092,0,11.063-0.104,16.03,0.023c7.133,0.185,14.112-0.953,21.142-1.914c3.48-0.477,7.813-1.123,10.863,1.845
								c1.822,0.29,3.241,3.813,5.021,1.619c1.411-1.741-0.752-2.486-1.978-3.603c-2.468-2.521-6.306-3.66-9.59-4.324
								c-9.535-1.924-18.979-1.877-28.474-0.047c-2.625,0.506-5.26,0.586-9.24,0.061c5.281-2.868,9.941-4.337,14.66-4.512
								c5.551-0.205,11.308-0.907,16.672,1.525c2.354,1.066,4.32-1.275,6.75-0.559c3.652,1.078,8.16,2.152,11.224,4.635
								c3.266-1.025,0.91-4.041,1.494-5.988c0.522-1.742-1.034-2.074-2.471-1.955c-1.596,0.133-2.546-0.361-2.275-2.164
								c4.007-3.063,4.007-3.063,0.92-4.719c-5.421-2.725-11.261-4.313-17.056-5.895c-4.636-1.266-5.813-2.957-3.855-7.459
								c0.434-0.995,1.304-1.897,0.04-2.723c-5.974,0.616-11.91,3.555-17.871,4.992l0,0l-10.088,4.057
								c-1,1.111-2.062,1.615-3.142,1.955l0,0c-2.959,4.974-7.298,10.067-10.868,14.643c-1.25,1.602,0.336,2.133,2.062,2.65
								c3.305,0.992,7.046,0.104,10.075,2.201c-4.858,0.469-9.685,0.998-14.428-0.082l-4.686,7.862l-0.001-0.007
								c-0.591,1.201-1.579,2.261-3.174,3.035c-1.246,3.117,0.868,6.761,4.502,7.676c0.632,0.159,1.322,0.163,1.979,0.127
								c13.231-0.73,26.38,1.532,39.611,1.053c5.688-0.207,11.395-0.068,17.086,0.096c2.385,0.067,4.543-0.467,6.678-1.362
								c0.914,0.013,1.83,0.022,2.746,0.034c1.742,3.689,5.982,1.734,8.502,3.75c0.752,0.601,1.933,0.777,2.488-0.319
								C98.734,164.185,97.876,163.58,97.276,163.015z"/>
							<path fill="none" d="M120.81,164.884c7.777,0.242,15.448-1.857,23.215-1.043c3.521,0.369,5.106-1.01,5.399-4.985
								c-13.698,1.38-26.968,2.718-40.938,4.123C112.939,164.962,116.874,164.761,120.81,164.884z"/>
							<g>
								<path fill="none" d="M83.535,76.085c4.962,0.061,9.922,0.632,14.879,0.589c2.602-0.022,5.438-0.771,6.397-3.698
									c0.956-2.917-1.838-3.997-3.396-5.631c-4.781-1.057-9.33,0.387-13.929,1.301c-1.435,0.367-2.864,0.754-4.306,1.096
									c-1.875,0.446-3.732,1.308-3.49,3.414C79.901,74.966,81.307,76.059,83.535,76.085z"/>
								<path fill="none" d="M91.103,111.919c4.146-0.651,8.64,0.877,12.851-1.629c1.743-1.037,1.545-2.192,1.563-3.621
									c0.023-2.07-1.479-1.805-2.759-1.813c-4.467-0.03-8.938,0.081-13.398-0.085c-2.559-0.096-5.311,0.954-7.646-0.971
									c-1.491-1.229-3.042-1.434-4.331,0.154c-1.432,1.766-0.53,3.182,0.726,4.775C81.626,113.208,86.606,111.039,91.103,111.919z
									"/>
								<path fill="none" d="M84.656,97.755c1.284,0.054,18.336,0.17,19.395-0.211c2.28-0.824,3.983-2.131,3.637-5.024
									c-0.341-2.836-2.429-2.593-4.387-2.89c-6.59-0.996-13.229-0.859-19.808-0.377c-4.854,0.356-5.853,3.463-2.857,7.332
									C81.62,98.197,83.2,97.761,84.656,97.755z"/>
								<path fill="none" d="M97.276,163.015c-2.449-2.309-5.235-4.188-7.283-7.021c-1.644-2.275-3.03-1.037-3.495,1.32
									c-0.467,1.124,0.552,2.663-0.98,3.484c0.016-5.354-0.28-5.625-4.97-3.791c-6.813,2.664-13.717,3.763-20.892,1.644
									c-1.114-3.291,2.794-0.708,2.944-2.519c0.634,0.016,1.27,0.031,1.902,0.048c0.651-0.216,1.208,0.183,1.691,0.672
									c0.143-0.009,0.286-0.022,0.433-0.045c5.644,0.056,10.496-2.792,15.703-4.329c0.714-0.211,0.323-1.105,0.09-1.697
									c0.032-0.031,0.063-0.064,0.096-0.097c-5.64-1.582-12.228-1.076-17.772-0.313c-7.786,1.07-15.557,0.444-23.332,0.301
									c-1.161-0.021-2.307-0.903-4.472-1.814c6.092,0,11.063-0.104,16.03,0.023c7.133,0.185,14.112-0.953,21.142-1.914
									c3.48-0.477,7.813-1.123,10.863,1.845c1.822,0.29,3.241,3.813,5.021,1.619c1.411-1.741-0.752-2.486-1.978-3.603
									c-2.468-2.521-6.306-3.66-9.59-4.324c-9.535-1.924-18.979-1.877-28.474-0.047c-2.625,0.506-5.26,0.586-9.24,0.061
									c5.281-2.868,9.941-4.337,14.66-4.512c5.551-0.205,11.308-0.907,16.672,1.525c2.354,1.066,4.32-1.275,6.75-0.559
									c3.652,1.078,8.16,2.152,11.224,4.635c3.266-1.025,0.91-4.041,1.494-5.988c0.522-1.742-1.034-2.074-2.471-1.955
									c-1.596,0.133-2.546-0.361-2.275-2.164c4.007-3.063,4.007-3.063,0.92-4.719c-5.421-2.725-11.261-4.313-17.056-5.895
									c-4.636-1.266-5.813-2.957-3.855-7.459c0.434-0.995,1.304-1.897,0.04-2.723c-5.974,0.616-11.91,3.555-17.871,4.992l0,0
									l-10.088,4.057c-1,1.111-2.062,1.615-3.142,1.955l0,0c-2.959,4.974-7.298,10.067-10.868,14.643
									c-1.25,1.602,0.336,2.133,2.062,2.65c3.305,0.992,7.046,0.104,10.075,2.201c-4.858,0.469-9.685,0.998-14.428-0.082
									l-4.686,7.862l-0.001-0.007c-0.591,1.201-1.579,2.261-3.174,3.035c-1.246,3.117,0.868,6.761,4.502,7.676
									c0.632,0.159,1.322,0.163,1.979,0.127c13.231-0.73,26.38,1.532,39.611,1.053c5.688-0.207,11.395-0.068,17.086,0.096
									c2.385,0.067,4.543-0.467,6.678-1.362c0.914,0.013,1.83,0.022,2.746,0.034c1.742,3.689,5.982,1.734,8.502,3.75
									c0.752,0.601,1.933,0.777,2.488-0.319C98.734,164.185,97.876,163.58,97.276,163.015z"/>
								<path fill="none" d="M120.81,164.884c7.777,0.242,15.448-1.857,23.215-1.043c3.521,0.369,5.106-1.01,5.399-4.985
									c-13.698,1.38-26.968,2.718-40.938,4.123C112.939,164.962,116.874,164.761,120.81,164.884z"/>
								<g>
									<path fill="none" d="M84.656,97.755c1.284,0.054,18.336,0.17,19.395-0.211c2.28-0.824,3.983-2.131,3.637-5.024
										c-0.341-2.836-2.429-2.593-4.387-2.89c-6.59-0.996-13.229-0.859-19.808-0.377c-4.854,0.356-5.853,3.463-2.857,7.332
										C81.62,98.197,83.2,97.761,84.656,97.755z"/>
									<path fill="none" d="M91.103,111.919c4.146-0.651,8.64,0.877,12.851-1.629c1.743-1.037,1.545-2.192,1.563-3.621
										c0.023-2.07-1.479-1.805-2.759-1.813c-4.467-0.03-8.938,0.081-13.398-0.085c-2.559-0.096-5.311,0.954-7.646-0.971
										c-1.491-1.229-3.042-1.434-4.331,0.154c-1.432,1.766-0.53,3.182,0.726,4.775C81.626,113.208,86.606,111.039,91.103,111.919
										z"/>
									<path fill="none" d="M83.535,76.085c4.962,0.061,9.922,0.632,14.879,0.589c2.602-0.022,5.438-0.771,6.397-3.698
										c0.956-2.917-1.838-3.997-3.396-5.631c-4.781-1.057-9.33,0.387-13.929,1.301c-1.435,0.367-2.864,0.754-4.306,1.096
										c-1.875,0.446-3.732,1.308-3.49,3.414C79.901,74.966,81.307,76.059,83.535,76.085z"/>
									<path fill="none" d="M97.276,163.015c-2.449-2.309-5.235-4.188-7.283-7.021c-1.644-2.275-3.03-1.037-3.495,1.32
										c-0.467,1.124,0.552,2.663-0.98,3.484c0.016-5.354-0.28-5.625-4.97-3.791c-6.813,2.664-13.717,3.763-20.892,1.644l0,0
										c0,0,0,0-0.001,0c-3.277-0.435-6.558-0.866-9.837-1.301c4.235-2.263,8.535-1.286,12.781-1.218c0,0.002,0,0.004,0,0.006
										c0-0.002,0.001-0.004,0.001-0.006c0.634,0.016,1.27,0.031,1.902,0.048c0.651-0.216,1.208,0.183,1.691,0.672
										c0.143-0.009,0.286-0.022,0.433-0.045c5.644,0.056,10.496-2.792,15.703-4.329c0.714-0.211,0.323-1.105,0.09-1.697
										c0.032-0.031,0.063-0.064,0.096-0.097c-5.64-1.582-12.228-1.076-17.772-0.313c-7.786,1.07-15.557,0.444-23.332,0.301
										c-1.161-0.021-2.307-0.903-4.472-1.814c6.092,0,11.063-0.104,16.03,0.023c7.133,0.185,14.112-0.953,21.142-1.914
										c3.48-0.477,7.813-1.123,10.863,1.845c1.822,0.29,3.241,3.813,5.021,1.619c1.411-1.741-0.752-2.486-1.978-3.603
										c-2.468-2.521-6.306-3.66-9.59-4.324c-9.535-1.924-18.979-1.877-28.474-0.047c-2.625,0.506-5.26,0.586-9.24,0.061
										c5.281-2.868,9.941-4.337,14.66-4.512c5.551-0.205,11.308-0.907,16.672,1.525c2.354,1.066,4.32-1.275,6.75-0.559
										c3.652,1.078,8.16,2.152,11.224,4.635c3.266-1.025,0.91-4.041,1.494-5.988c0.522-1.742-1.034-2.074-2.471-1.955
										c-1.596,0.133-2.546-0.361-2.275-2.164c4.007-3.063,4.007-3.063,0.92-4.719c-5.421-2.725-11.261-4.313-17.056-5.895
										c-4.636-1.266-5.813-2.957-3.855-7.459c0.434-0.995,1.304-1.897,0.04-2.723c-5.974,0.616-11.91,3.555-17.871,4.992l0,0
										l-10.088,4.057c-1,1.111-2.062,1.615-3.142,1.955l0,0c-2.959,4.974-7.298,10.067-10.868,14.643
										c-1.25,1.602,0.336,2.133,2.062,2.65c3.305,0.992,7.046,0.104,10.075,2.201c-4.858,0.469-9.685,0.998-14.428-0.082
										l-4.686,7.862l-0.001-0.007c-0.591,1.201-1.579,2.261-3.174,3.035c-1.246,3.117,0.868,6.761,4.502,7.676
										c0.632,0.159,1.322,0.163,1.979,0.127c13.231-0.73,26.38,1.532,39.611,1.053c5.688-0.207,11.395-0.068,17.086,0.096
										c2.385,0.067,4.543-0.467,6.678-1.362c0.914,0.013,1.83,0.022,2.746,0.034c1.742,3.689,5.982,1.734,8.502,3.75
										c0.752,0.601,1.933,0.777,2.488-0.319C98.734,164.185,97.876,163.58,97.276,163.015z"/>
									<path fill="none" d="M120.81,164.884c7.777,0.242,15.448-1.857,23.215-1.043c3.521,0.369,5.106-1.01,5.399-4.985
										c-13.698,1.38-26.968,2.718-40.938,4.123C112.939,164.962,116.874,164.761,120.81,164.884z"/>
									<g>
										<path fill="none" d="M83.535,76.085c4.962,0.061,9.922,0.632,14.879,0.589c2.602-0.022,5.438-0.771,6.397-3.698
											c0.956-2.917-1.838-3.997-3.396-5.631c-4.781-1.057-9.33,0.387-13.929,1.301c-1.435,0.367-2.864,0.754-4.306,1.096
											c-1.875,0.446-3.732,1.308-3.49,3.414C79.901,74.966,81.307,76.059,83.535,76.085z"/>
										<path fill="none" d="M91.103,111.919c4.146-0.651,8.64,0.877,12.851-1.629c1.743-1.037,1.545-2.192,1.563-3.621
											c0.023-2.07-1.479-1.805-2.759-1.813c-4.467-0.03-8.938,0.081-13.398-0.085c-2.559-0.096-5.311,0.954-7.646-0.971
											c-1.491-1.229-3.042-1.434-4.331,0.154c-1.432,1.766-0.53,3.182,0.726,4.775
											C81.626,113.208,86.606,111.039,91.103,111.919z"/>
										<path fill="none" d="M84.554,161.6c0.321-0.269,0.641-0.534,0.961-0.802c0,0,0,0,0.001-0.002
											c0.015-5.353-0.28-5.623-4.97-3.789c-6.813,2.664-13.717,3.763-20.892,1.644c0,0,0,0-0.001,0
											c-3.277-0.435-6.558-0.866-9.837-1.301c4.235-2.263,8.535-1.286,12.781-1.218c0,0.002,0,0.004,0,0.006
											c0-0.002,0.001-0.004,0.001-0.006c0.634,0.016,1.27,0.031,1.902,0.048c0.651-0.216,1.208,0.183,1.691,0.672
											c0.143-0.009,0.286-0.022,0.433-0.045c5.644,0.056,10.496-2.792,15.703-4.329c0.714-0.211,0.323-1.105,0.09-1.697
											c0.032-0.031,0.063-0.064,0.096-0.097c-5.64-1.582-12.228-1.076-17.772-0.313c-7.786,1.07-15.557,0.444-23.332,0.301
											c-1.161-0.021-2.307-0.903-4.472-1.814c6.092,0,11.063-0.104,16.03,0.023c7.133,0.185,14.112-0.953,21.142-1.914
											c3.48-0.477,7.813-1.123,10.863,1.845c1.822,0.29,3.241,3.813,5.021,1.619c1.411-1.741-0.752-2.486-1.978-3.603
											c-2.468-2.521-6.306-3.66-9.59-4.324c-9.535-1.924-18.979-1.877-28.474-0.047c-2.625,0.506-5.26,0.586-9.24,0.061
											c5.281-2.868,9.941-4.337,14.66-4.512c5.551-0.205,11.308-0.907,16.672,1.525c2.354,1.066,4.319-1.275,6.75-0.559
											c3.652,1.078,8.16,2.152,11.224,4.635c3.266-1.025,0.91-4.041,1.494-5.988c0.522-1.742-1.034-2.074-2.471-1.955
											c-1.596,0.133-2.546-0.361-2.275-2.164c4.007-3.063,4.007-3.063,0.92-4.719c-5.421-2.725-11.261-4.313-17.056-5.895
											c-4.636-1.266-5.813-2.957-3.855-7.459c0.434-0.995,1.304-1.897,0.04-2.723c-5.974,0.616-11.91,3.555-17.871,4.992l0,0
											l-10.088,4.057c-1,1.111-2.062,1.615-3.142,1.955l0,0c-2.959,4.974-7.298,10.067-10.868,14.643
											c-1.25,1.602,0.336,2.133,2.062,2.65c3.305,0.992,7.046,0.104,10.075,2.201c-4.858,0.469-9.685,0.998-14.428-0.082
											l-4.686,7.862l-0.001-0.007c-0.591,1.201-1.579,2.261-3.174,3.035c-1.247,3.117,0.868,6.761,4.502,7.676
											c0.632,0.159,1.322,0.163,1.979,0.127c13.231-0.73,26.38,1.532,39.611,1.053c5.688-0.207,11.395-0.068,17.086,0.096
											c2.385,0.067,4.543-0.467,6.678-1.362C84.553,161.6,84.553,161.6,84.554,161.6z"/>
										<path fill="none" d="M84.656,97.755c1.284,0.054,18.336,0.17,19.395-0.211c2.28-0.824,3.983-2.131,3.637-5.024
											c-0.341-2.836-2.429-2.593-4.387-2.89c-6.59-0.996-13.229-0.859-19.808-0.377c-4.854,0.356-5.853,3.463-2.857,7.332
											C81.62,98.197,83.2,97.761,84.656,97.755z"/>
										<path fill="none" d="M97.276,163.015c-2.449-2.309-5.235-4.188-7.283-7.021c-1.644-2.275-3.03-1.037-3.495,1.32
											c0,0.001,0,0.002-0.001,0.004c3.958,2.444,3.981,2.566,0.804,4.318c1.743,3.688,5.983,1.732,8.501,3.748
											c0.752,0.601,1.933,0.777,2.488-0.319C98.734,164.185,97.876,163.58,97.276,163.015z"/>
										<path fill="none" d="M120.81,164.884c7.777,0.242,15.448-1.857,23.215-1.043c3.521,0.369,5.106-1.01,5.399-4.985
											c-13.698,1.38-26.968,2.718-40.938,4.123C112.939,164.962,116.874,164.761,120.81,164.884z"/>
										<g>
											<path fill="none" d="M91.103,111.919c4.146-0.651,8.64,0.877,12.851-1.629c1.743-1.037,1.545-2.192,1.563-3.621
												c0.023-2.07-1.479-1.805-2.759-1.813c-4.467-0.03-8.938,0.081-13.398-0.085c-2.559-0.096-5.311,0.954-7.646-0.971
												c-1.491-1.229-3.042-1.434-4.331,0.154c-1.432,1.766-0.53,3.182,0.726,4.775
												C81.626,113.208,86.606,111.039,91.103,111.919z"/>
											<path fill="none" d="M84.656,97.755c1.284,0.054,18.336,0.17,19.395-0.211c2.28-0.824,3.983-2.131,3.637-5.024
												c-0.341-2.836-2.429-2.593-4.387-2.89c-6.59-0.996-13.229-0.859-19.808-0.377c-4.854,0.356-5.853,3.463-2.857,7.332
												C81.62,98.197,83.2,97.761,84.656,97.755z"/>
											<path fill="none" d="M83.535,76.085c4.962,0.061,9.922,0.632,14.879,0.589c2.602-0.022,5.438-0.771,6.397-3.698
												c0.956-2.917-1.838-3.997-3.396-5.631c-4.781-1.057-9.33,0.387-13.929,1.301c-1.435,0.367-2.864,0.754-4.306,1.096
												c-1.875,0.446-3.732,1.308-3.49,3.414C79.901,74.966,81.307,76.059,83.535,76.085z"/>
											<path fill="none" d="M80.547,157.007c-6.813,2.664-13.717,3.763-20.892,1.644c0,0,0,0-0.001,0
												c-3.277-0.435-6.558-0.866-9.837-1.301c4.235-2.263,8.535-1.286,12.781-1.218c0,0.002,0,0.004,0,0.006
												c0-0.002,0.001-0.004,0.001-0.006c0.634,0.016,1.27,0.031,1.902,0.048c0.651-0.216,1.208,0.183,1.691,0.672
												c0.143-0.009,0.286-0.022,0.433-0.045c5.644,0.056,10.496-2.792,15.703-4.329c0.714-0.211,0.323-1.105,0.09-1.697
												c0.032-0.031,0.063-0.064,0.096-0.097c-5.64-1.582-12.228-1.076-17.772-0.313c-7.786,1.07-15.557,0.444-23.332,0.301
												c-1.161-0.021-2.307-0.903-4.472-1.814c6.092,0,11.063-0.104,16.03,0.023c7.133,0.185,14.112-0.953,21.142-1.914
												c3.48-0.477,7.813-1.123,10.863,1.845c1.822,0.29,3.241,3.813,5.021,1.619c1.411-1.741-0.752-2.486-1.978-3.603
												c-2.468-2.521-6.306-3.66-9.59-4.324c-9.535-1.924-18.979-1.877-28.474-0.047c-2.625,0.506-5.26,0.586-9.24,0.061
												c5.281-2.868,9.941-4.337,14.66-4.512c5.551-0.205,11.308-0.907,16.672,1.525c2.354,1.066,4.32-1.275,6.75-0.559
												c3.652,1.078,8.16,2.152,11.224,4.635c3.266-1.025,0.91-4.041,1.494-5.988c0.522-1.742-1.034-2.074-2.471-1.955
												c-1.596,0.133-2.546-0.361-2.275-2.164c4.007-3.063,4.007-3.063,0.92-4.719c-5.421-2.725-11.261-4.313-17.056-5.895
												c-4.636-1.266-5.813-2.957-3.855-7.459c0.434-0.995,1.304-1.897,0.04-2.723c-5.974,0.616-11.91,3.555-17.871,4.992l0,0
												l-10.088,4.057c-1,1.111-2.062,1.615-3.142,1.955l0,0c-2.959,4.974-7.298,10.067-10.868,14.643
												c-1.25,1.602,0.336,2.133,2.062,2.65c3.305,0.992,7.046,0.104,10.075,2.201c-4.858,0.469-9.685,0.998-14.428-0.082
												l-4.686,7.862l-0.001-0.007c-0.591,1.201-1.579,2.261-3.174,3.035c-1.246,3.117,0.868,6.761,4.502,7.676
												c0.632,0.159,1.322,0.163,1.979,0.127c13.231-0.73,26.38,1.532,39.611,1.053c5.688-0.207,11.395-0.068,17.086,0.096
												c2.385,0.067,4.543-0.467,6.678-1.362h0.001c0.321-0.269,0.641-0.534,0.961-0.802c0,0,0,0,0.001-0.002
												C85.531,155.445,85.236,155.173,80.547,157.007z"/>
											<path fill="none" d="M97.276,163.015c-2.449-2.309-5.235-4.188-7.283-7.021c-1.644-2.275-3.03-1.037-3.495,1.32
												c0,0.001,0,0.002-0.001,0.004c3.958,2.444,3.981,2.566,0.804,4.318c1.743,3.688,5.983,1.732,8.501,3.748
												c0.752,0.601,1.933,0.777,2.488-0.319C98.734,164.185,97.876,163.58,97.276,163.015z"/>
											<path fill="none" d="M120.81,164.884c7.777,0.242,15.448-1.857,23.215-1.043c3.521,0.369,5.106-1.01,5.399-4.985
												c-13.698,1.38-26.968,2.718-40.938,4.123C112.939,164.962,116.874,164.761,120.81,164.884z"/>
											<g>
												<path fill="none" d="M83.535,76.085c4.962,0.061,9.922,0.632,14.879,0.589c2.602-0.022,5.438-0.771,6.397-3.698
													c0.956-2.917-1.838-3.997-3.396-5.631c-4.781-1.057-9.33,0.387-13.929,1.301c-1.435,0.367-2.864,0.754-4.306,1.096
													c-1.875,0.446-3.732,1.308-3.49,3.414C79.901,74.966,81.307,76.059,83.535,76.085z"/>
												<path fill="none" d="M84.656,97.755c1.284,0.054,18.336,0.17,19.395-0.211c2.28-0.824,3.983-2.131,3.637-5.024
													c-0.341-2.836-2.429-2.593-4.387-2.89c-6.59-0.996-13.229-0.859-19.808-0.377c-4.854,0.356-5.853,3.463-2.857,7.332
													C81.62,98.197,83.2,97.761,84.656,97.755z"/>
												<path fill="none" d="M91.103,111.919c4.146-0.651,8.64,0.877,12.851-1.629c1.743-1.037,1.545-2.192,1.563-3.621
													c0.023-2.07-1.479-1.805-2.759-1.813c-4.467-0.03-8.938,0.081-13.398-0.085c-2.559-0.096-5.311,0.954-7.646-0.971
													c-1.491-1.229-3.042-1.434-4.331,0.154c-1.432,1.766-0.53,3.182,0.726,4.775
													C81.626,113.208,86.606,111.039,91.103,111.919z"/>
												<path fill="none" d="M120.81,164.884c7.777,0.242,15.448-1.857,23.215-1.043c3.521,0.369,5.106-1.01,5.399-4.985
													c-13.698,1.38-26.968,2.718-40.938,4.123C112.939,164.962,116.874,164.761,120.81,164.884z"/>
												<path fill="none" d="M97.276,163.015c-2.449-2.309-5.235-4.188-7.283-7.021c-1.644-2.275-3.03-1.037-3.495,1.32
													c0,0.001,0,0.002-0.001,0.004c3.958,2.444,3.981,2.566,0.804,4.318c1.743,3.688,5.983,1.732,8.501,3.748
													c0.752,0.601,1.933,0.777,2.488-0.319C98.734,164.185,97.876,163.58,97.276,163.015z"/>
												<path fill="none" d="M80.547,157.007c-6.813,2.664-13.717,3.763-20.892,1.644c0,0,0,0-0.001,0
													c-3.277-0.435-6.558-0.866-9.837-1.301c4.235-2.263,8.535-1.286,12.781-1.218c0,0.002,0,0.004,0,0.006
													c0-0.002,0.001-0.004,0.001-0.006c0.634,0.016,1.27,0.031,1.902,0.048c0.651-0.216,1.208,0.183,1.691,0.672
													c0.143-0.009,0.286-0.022,0.433-0.045c5.644,0.056,10.496-2.792,15.703-4.329c0.714-0.211,0.323-1.105,0.09-1.697
													c0.032-0.031,0.063-0.064,0.096-0.097c-5.64-1.582-12.228-1.076-17.772-0.313c-7.786,1.07-15.557,0.444-23.332,0.301
													c-1.161-0.021-2.307-0.903-4.472-1.814c6.092,0,11.063-0.104,16.03,0.023c7.133,0.185,14.112-0.953,21.142-1.914
													c3.48-0.477,7.813-1.123,10.863,1.845c1.822,0.29,3.241,3.813,5.021,1.619c1.411-1.741-0.752-2.486-1.978-3.603
													c-2.468-2.521-6.306-3.66-9.59-4.324c-9.535-1.924-18.979-1.877-28.474-0.047c-2.625,0.506-5.26,0.586-9.24,0.061
													c5.281-2.868,9.941-4.337,14.66-4.512c5.551-0.205,11.308-0.907,16.672,1.525c2.354,1.066,4.32-1.275,6.75-0.559
													c3.652,1.078,8.16,2.152,11.224,4.635c3.266-1.025,0.91-4.041,1.494-5.988c0.522-1.742-1.034-2.074-2.471-1.955
													c-1.596,0.133-2.546-0.361-2.275-2.164c4.007-3.063,4.007-3.063,0.92-4.719c-5.421-2.725-11.261-4.313-17.056-5.895
													c-4.636-1.266-5.813-2.957-3.855-7.459c0.434-0.995,1.304-1.897,0.04-2.723c-5.974,0.616-11.91,3.555-17.871,4.992l0,0
													l-10.088,4.057c-1,1.111-2.062,1.615-3.142,1.955l0,0c-2.959,4.974-7.298,10.067-10.868,14.643
													c-1.25,1.602,0.336,2.133,2.062,2.65c3.305,0.992,7.046,0.104,10.075,2.201c-4.858,0.469-9.685,0.998-14.428-0.082
													l-4.686,7.862l-0.001-0.007c-0.591,1.201-1.579,2.261-3.174,3.035c-1.246,3.117,0.868,6.761,4.502,7.676
													c0.632,0.159,1.322,0.163,1.979,0.127c13.231-0.73,26.38,1.532,39.611,1.053c5.688-0.207,11.395-0.068,17.086,0.096
													c2.385,0.067,4.543-0.467,6.678-1.362h0.001c0.321-0.269,0.641-0.534,0.961-0.802c0,0,0,0,0.001-0.002
													C85.531,155.445,85.236,155.173,80.547,157.007z"/>
												<g>
													<path fill="none" d="M80.547,157.007c-6.813,2.664-13.717,3.763-20.892,1.644c0,0,0,0-0.001,0
														c-3.277-0.435-6.558-0.866-9.837-1.301c4.235-2.263,8.535-1.286,12.781-1.218c0,0.002,0,0.004,0,0.006
														c0-0.002,0.001-0.004,0.001-0.006c0.634,0.016,1.27,0.031,1.902,0.048c0.651-0.216,1.208,0.183,1.691,0.672
														c0.143-0.009,0.286-0.022,0.433-0.045c5.644,0.056,10.496-2.792,15.703-4.329c0.714-0.211,0.323-1.105,0.09-1.697
														c0.032-0.031,0.063-0.064,0.096-0.097c-5.64-1.582-12.228-1.076-17.772-0.313c-7.786,1.07-15.557,0.444-23.332,0.301
														c-1.161-0.021-2.307-0.903-4.472-1.814c6.092,0,11.063-0.104,16.03,0.023c7.133,0.185,14.112-0.953,21.142-1.914
														c3.48-0.477,7.813-1.123,10.863,1.845c1.822,0.29,3.241,3.813,5.021,1.619c1.411-1.741-0.752-2.486-1.978-3.603
														c-2.468-2.521-6.306-3.66-9.59-4.324c-9.535-1.924-18.979-1.877-28.474-0.047c-2.625,0.506-5.26,0.586-9.24,0.061
														c5.281-2.868,9.941-4.337,14.66-4.512c5.551-0.205,11.308-0.907,16.672,1.525c2.354,1.066,4.32-1.275,6.75-0.559
														c3.652,1.078,8.16,2.152,11.224,4.635c3.266-1.025,0.91-4.041,1.494-5.988c0.522-1.742-1.034-2.074-2.471-1.955
														c-1.596,0.133-2.546-0.361-2.275-2.164c4.007-3.063,4.007-3.063,0.92-4.719c-5.421-2.725-11.261-4.313-17.056-5.895
														c-4.636-1.266-5.813-2.957-3.855-7.459c0.434-0.995,1.304-1.897,0.04-2.723c-5.974,0.616-11.91,3.555-17.871,4.992l0,0
														l-10.088,4.057c-1,1.111-2.062,1.615-3.142,1.955l0,0c-2.959,4.974-7.298,10.067-10.868,14.643
														c-1.25,1.602,0.336,2.133,2.062,2.65c3.305,0.992,7.046,0.104,10.075,2.201c-4.858,0.469-9.685,0.998-14.428-0.082
														l-4.686,7.862l-0.001-0.007c-0.591,1.201-1.579,2.261-3.174,3.035c-1.246,3.117,0.868,6.761,4.502,7.676
														c0.632,0.159,1.322,0.163,1.979,0.127c13.231-0.73,26.38,1.532,39.611,1.053c5.688-0.207,11.395-0.068,17.086,0.096
														c2.385,0.067,4.543-0.467,6.678-1.362h0.001c0.321-0.269,0.641-0.534,0.961-0.802c0,0,0,0,0.001-0.002
														C85.531,155.445,85.236,155.173,80.547,157.007z"/>
													<path fill="none" d="M84.656,97.755c1.284,0.054,18.336,0.17,19.395-0.211c2.28-0.824,3.983-2.131,3.637-5.024
														c-0.341-2.836-2.429-2.593-4.387-2.89c-6.59-0.996-13.229-0.859-19.808-0.377c-4.854,0.356-5.853,3.463-2.857,7.332
														C81.62,98.197,83.2,97.761,84.656,97.755z"/>
													<path fill="none" d="M83.535,76.085c4.962,0.061,9.922,0.632,14.879,0.589c2.602-0.022,5.438-0.771,6.397-3.698
														c0.956-2.917-1.838-3.997-3.396-5.631c-4.781-1.057-9.33,0.387-13.929,1.301c-1.435,0.367-2.864,0.754-4.306,1.096
														c-1.875,0.446-3.732,1.308-3.49,3.414C79.901,74.966,81.307,76.059,83.535,76.085z"/>
													<path fill="none" d="M91.103,111.919c4.146-0.651,8.64,0.877,12.851-1.629c1.743-1.037,1.545-2.192,1.563-3.621
														c0.023-2.07-1.479-1.805-2.759-1.813c-4.467-0.03-8.938,0.081-13.398-0.085c-2.559-0.096-5.311,0.954-7.646-0.971
														c-1.491-1.229-3.042-1.434-4.331,0.154c-1.432,1.766-0.53,3.182,0.726,4.775
														C81.626,113.208,86.606,111.039,91.103,111.919z"/>
													<path fill="none" d="M97.276,163.015c-2.449-2.309-5.235-4.188-7.283-7.021c-1.644-2.275-3.03-1.037-3.495,1.32
														c0,0.001,0,0.002-0.001,0.004c3.958,2.444,3.981,2.566,0.804,4.318c1.743,3.688,5.983,1.732,8.501,3.748
														c0.752,0.601,1.933,0.777,2.488-0.319C98.734,164.185,97.876,163.58,97.276,163.015z"/>
													<path fill="none" d="M172.311,158.935c1.146-2.042,4.085-0.641,4.743-3.064c-2.354-1.832-5.146-0.492-7.647-1.055
														c-0.993-0.225-2.755,0.465-2.66-1.3c0.063-1.166,1.335-1.759,2.66-1.771c1.605-0.018,3.211-0.14,5.139-0.229
														c-0.986-2.497-2.157-4.226-4.794-3.565c-9.252,2.307-18.29-1.102-27.481-0.934c-7.754,0.143-14.915-3.682-22.603-4.432
														c-0.001,0-0.002,0-0.003,0.002c-7.179-0.256-14.179,0.635-20.913,3.233c1.078,2.948-0.859,5.181-2.742,8.486
														c6.32-2.763,11.922-2.442,17.512-2.486c2.651-0.021,5.623,1.625,5.655,3.065c0.075,3.23-3.197,1.66-5.067,1.806
														c-3.167,0.243-6.454-0.349-9.56,2.045c3.669,1.81,7.437,1.353,10.855,0.872c14.741-2.066,29.489-3.582,44.4-2.939
														c1.646,0.07,3.224,0.051,4.737,0.939c0.738,0.436,2.309-0.053,1.894,1.482c-0.304,1.117-1.246,1.945-2.688,1.428
														c-3.931-1.415-7.991-0.104-12.241-1.068c2.12,3.98,8.266,6.07,12.196,4.682c1.152-0.408,1.998-1.34,3.571-1.116
														c4.46,0.634,8.96,0.8,12.271-3.757C177.133,158.835,174.573,161.203,172.311,158.935z"/>
													<path fill="none" d="M120.81,164.884c7.777,0.242,15.448-1.857,23.215-1.043c3.521,0.369,5.106-1.01,5.399-4.985
														c-13.698,1.38-26.968,2.718-40.938,4.123C112.939,164.962,116.874,164.761,120.81,164.884z"/>
													<g>
														<path fill="none" d="M115.765,139.6c-0.387-0.063-0.771-0.124-1.157-0.187c-3.816-0.783-7.457-0.65-10.78,1.084
															c3.324-1.734,6.964-1.867,10.779-1.082C115.246,140.367,115.246,140.367,115.765,139.6
															c0.873-0.022,1.747-0.045,2.621-0.067c0.004,0.01,0.012,0.02,0.017,0.029c-0.004-0.012-0.009-0.021-0.013-0.031
															c-0.001,0-0.002,0-0.003,0C117.513,139.554,116.639,139.578,115.765,139.6z"/>
														<path fill="none" d="M94.641,139.705c-0.004,1.096,0.136,1.957,0.527,2.48
															C94.778,141.662,94.638,140.798,94.641,139.705C94.642,139.705,94.642,139.705,94.641,139.705z"/>
														<path fill="none" d="M169.395,143.785c0.001,0,0.001,0,0.002,0c-3.291-10.787-7.438-20.191-17.732-25.209
															c0,0.002-0.001,0.002-0.002,0.004h0.001C161.959,123.596,166.104,133,169.395,143.785z"/>
														<rect x="101.573" y="141.962" fill="none" width="0.003" height="0.004"/>
														<path fill="none" d="M83.535,76.085c4.962,0.061,9.922,0.632,14.879,0.589c2.602-0.022,5.438-0.771,6.397-3.698
															c0.956-2.917-1.838-3.997-3.396-5.631c-4.781-1.057-9.33,0.387-13.929,1.301c-1.435,0.367-2.864,0.754-4.306,1.096
															c-1.875,0.446-3.732,1.308-3.49,3.414C79.901,74.966,81.307,76.059,83.535,76.085z"/>
														<path fill="none" d="M142.563,115.955c3.248,0.787,7.493,2.112,8.763,2.518
															C148.434,117.526,145.484,116.625,142.563,115.955z"/>
														<path fill="none" d="M97.276,163.015c-2.449-2.309-5.235-4.188-7.283-7.021c-1.644-2.275-3.03-1.037-3.495,1.32
															c0,0.001,0,0.002-0.001,0.004c3.958,2.444,3.981,2.566,0.804,4.318c1.743,3.688,5.983,1.732,8.501,3.748
															c0.752,0.601,1.933,0.777,2.488-0.319C98.734,164.185,97.876,163.58,97.276,163.015z"/>
														<path fill="none" d="M172.311,158.935c1.146-2.042,4.085-0.641,4.743-3.064c-2.354-1.832-5.146-0.492-7.647-1.055
															c-0.993-0.225-2.755,0.465-2.66-1.3c0.063-1.166,1.335-1.759,2.66-1.771c1.605-0.018,3.211-0.14,5.139-0.229
															c-0.986-2.497-2.157-4.226-4.794-3.565c-9.252,2.307-18.29-1.102-27.481-0.934
															c-7.754,0.143-14.915-3.682-22.603-4.432c-0.001,0-0.002,0-0.003,0.002c-7.179-0.256-14.179,0.635-20.913,3.233
															c1.078,2.948-0.859,5.181-2.742,8.486c6.32-2.763,11.922-2.442,17.512-2.486c2.651-0.021,5.623,1.625,5.655,3.065
															c0.075,3.23-3.197,1.66-5.067,1.806c-3.167,0.243-6.454-0.349-9.56,2.045c3.669,1.81,7.437,1.353,10.855,0.872
															c14.741-2.066,29.489-3.582,44.4-2.939c1.646,0.07,3.224,0.051,4.737,0.939c0.738,0.436,2.309-0.053,1.894,1.482
															c-0.304,1.117-1.246,1.945-2.688,1.428c-3.931-1.415-7.991-0.104-12.241-1.068c2.12,3.98,8.266,6.07,12.196,4.682
															c1.152-0.408,1.998-1.34,3.571-1.116c4.46,0.634,8.96,0.8,12.271-3.757
															C177.133,158.835,174.573,161.203,172.311,158.935z"/>
														<path fill="none" d="M120.81,164.884c7.777,0.242,15.448-1.857,23.215-1.043c3.521,0.369,5.106-1.01,5.399-4.985
															c-13.698,1.38-26.968,2.718-40.938,4.123C112.939,164.962,116.874,164.761,120.81,164.884z"/>
														<path fill="none" d="M91.103,111.919c4.146-0.651,8.64,0.877,12.851-1.629c1.743-1.037,1.545-2.192,1.563-3.621
															c0.023-2.07-1.479-1.805-2.759-1.813c-4.467-0.03-8.938,0.081-13.398-0.085c-2.559-0.096-5.311,0.954-7.646-0.971
															c-1.491-1.229-3.042-1.434-4.331,0.154c-1.432,1.766-0.53,3.182,0.726,4.775
															C81.626,113.208,86.606,111.039,91.103,111.919z"/>
														<path fill="none" d="M84.656,97.755c1.284,0.054,18.336,0.17,19.395-0.211c2.28-0.824,3.983-2.131,3.637-5.024
															c-0.341-2.836-2.429-2.593-4.387-2.89c-6.59-0.996-13.229-0.859-19.808-0.377c-4.854,0.356-5.853,3.463-2.857,7.332
															C81.62,98.197,83.2,97.761,84.656,97.755z"/>
														<path fill="none" d="M80.547,157.007c-6.813,2.664-13.717,3.763-20.892,1.644c0,0,0,0-0.001,0
															c-3.277-0.435-6.558-0.866-9.837-1.301c4.235-2.263,8.535-1.286,12.781-1.218c0,0.002,0,0.004,0,0.006
															c0-0.002,0.001-0.004,0.001-0.006c0.634,0.016,1.27,0.031,1.902,0.048c0.651-0.216,1.208,0.183,1.691,0.672
															c0.143-0.009,0.286-0.022,0.433-0.045c5.644,0.056,10.496-2.792,15.703-4.329c0.714-0.211,0.323-1.105,0.09-1.697
															c0.032-0.031,0.063-0.064,0.096-0.097c-5.64-1.582-12.228-1.076-17.772-0.313c-7.786,1.07-15.557,0.444-23.332,0.301
															c-1.161-0.021-2.307-0.903-4.472-1.814c6.092,0,11.063-0.104,16.03,0.023c7.133,0.185,14.112-0.953,21.142-1.914
															c3.48-0.477,7.813-1.123,10.863,1.845c1.822,0.29,3.241,3.813,5.021,1.619c1.411-1.741-0.752-2.486-1.978-3.603
															c-2.468-2.521-6.306-3.66-9.59-4.324c-9.535-1.924-18.979-1.877-28.474-0.047c-2.625,0.506-5.26,0.586-9.24,0.061
															c5.281-2.868,9.941-4.337,14.66-4.512c5.551-0.205,11.308-0.907,16.672,1.525c2.354,1.066,4.32-1.275,6.75-0.559
															c3.652,1.078,8.16,2.152,11.224,4.635c3.266-1.025,0.91-4.041,1.494-5.988c0.522-1.742-1.034-2.074-2.471-1.955
															c-1.596,0.133-2.546-0.361-2.275-2.164c4.007-3.063,4.007-3.063,0.92-4.719c-5.421-2.725-11.261-4.313-17.056-5.895
															c-4.636-1.266-5.813-2.957-3.855-7.459c0.434-0.995,1.304-1.897,0.04-2.723c-5.974,0.616-11.91,3.555-17.871,4.992
															l0,0l-10.088,4.057c-1,1.111-2.062,1.615-3.142,1.955l0,0c-2.959,4.974-7.298,10.067-10.868,14.643
															c-1.25,1.602,0.336,2.133,2.062,2.65c3.305,0.992,7.046,0.104,10.075,2.201c-4.858,0.469-9.685,0.998-14.428-0.082
															l-4.686,7.862l-0.001-0.007c-0.591,1.201-1.579,2.261-3.174,3.035c-1.246,3.117,0.868,6.761,4.502,7.676
															c0.632,0.159,1.322,0.163,1.979,0.127c13.231-0.73,26.38,1.532,39.611,1.053c5.688-0.207,11.395-0.068,17.086,0.096
															c2.385,0.067,4.543-0.467,6.678-1.362h0.001c0.321-0.269,0.641-0.534,0.961-0.802c0,0,0,0,0.001-0.002
															C85.531,155.445,85.236,155.173,80.547,157.007z"/>
														<g>
															<path fill="none" d="M95.068,139.291c0.086-0.097,0.169-0.192,0.232-0.289c0.383-0.578,0.344-1.152-0.236-1.726
																C94.389,137.944,94.465,138.617,95.068,139.291z"/>
															<g>
																<path fill="none" d="M104.031,149.83c2.85-0.729,5.881,1.276,8.582-0.932c8.056,0.578,16.115,1.814,24.152-0.165
																	c-9.307-1.428-18.74-0.255-28.03-1.668C106.515,146.669,104.29,146.261,104.031,149.83z"/>
																<g>
																	<path fill="none" d="M104.031,149.83c2.85-0.729,5.881,1.276,8.582-0.932c8.056,0.578,16.115,1.814,24.152-0.165
																		c-9.307-1.428-18.74-0.255-28.03-1.668C106.515,146.669,104.29,146.261,104.031,149.83z"/>
																	<g>
																		<path fill="none" d="M104.031,149.83c2.85-0.729,5.881,1.276,8.582-0.932c8.056,0.578,16.115,1.814,24.152-0.165
																			c-9.307-1.428-18.74-0.255-28.03-1.668C106.515,146.669,104.29,146.261,104.031,149.83z"/>
																		<path fill="#FEFEFE" d="M173.383,145.96c-3.242-5.408-9.329-22.474-19.625-27.489
																			c0,0-22.628-10.132-29.625-10.011c-0.999,0.018-4.064-0.006-5.125,0.25c-3.911,0.84-10.537-0.57-10.52-2
																			c0.023-2.07,0.241-42.237-0.105-45.132c-0.342-2.836-19.67-0.477-26.25,0.007
																			c-4.854,0.355-6.442,40.163-7.732,41.75c-1.431,1.764,0,1-2.721,6.381c-8.749,2.203-28.215,9.43-31.766,10.595
																			c-10.297,5.017-20.161,21.972-20.161,21.972l-1.62,2.803l-5.854,13.565l8.257,6.253l61.271-0.338
																			c0,0,12.66,2.924,27.827,3.02c22.85,0.145,52.012-0.885,54.375-1.723c1.153-0.406,13.938-0.98,17.25-5.537
																			C181.258,158.898,174.78,148.292,173.383,145.96z"/>
																	</g>
																</g>
															</g>
														</g>
														<g>
															<path fill="none" d="M84.656,97.755c1.284,0.054,18.336,0.17,19.395-0.211c2.28-0.824,3.983-2.131,3.637-5.024
																c-0.341-2.836-2.429-2.593-4.387-2.89c-6.59-0.996-13.229-0.859-19.808-0.377c-4.854,0.356-5.853,3.463-2.857,7.332
																C81.62,98.197,83.2,97.761,84.656,97.755z"/>
															<path fill="none" d="M83.535,76.085c4.962,0.061,9.922,0.632,14.879,0.589c2.602-0.022,5.438-0.771,6.397-3.698
																c0.956-2.917-1.838-3.997-3.396-5.631c-4.781-1.057-9.33,0.387-13.929,1.301c-1.435,0.367-2.864,0.754-4.306,1.096
																c-1.875,0.446-3.732,1.308-3.49,3.414C79.901,74.966,81.307,76.059,83.535,76.085z"/>
															<path fill="none" d="M94.621,136.906c-0.48,0.252-0.733,0.502-0.844,0.75c0.188-0.283,0.461-0.548,0.845-0.748
																c0.998,0.694,1.143,1.393,0.679,2.094c-0.155,0.233-0.377,0.469-0.658,0.703c0,0,0,0-0.001,0
																c-0.004,1.096,0.136,1.957,0.527,2.48c0.51,0.684,1.446,0.79,3.05,0.087c0.978-0.429,2.229-0.226,3.355-0.312
																l-0.001,0.002c0,0,0,0.002-0.002,0.002c0.002,0,0.003,0,0.004,0c0.001-0.002,0.002-0.002,0.003-0.002
																c0.73-0.58,1.481-1.064,2.249-1.465c3.324-1.734,6.964-1.867,10.779-1.082c0.64,0.951,0.64,0.951,1.157,0.186
																c0.874-0.023,1.748-0.046,2.622-0.068c0.004,0.01,0.012,0.021,0.017,0.029c-0.004-0.012-0.009-0.021-0.013-0.031
																c-0.001,0-0.001-0.003-0.002-0.004c8.125,1.139,16.312,1.961,24.358,3.495c8.866,1.69,17.642,0.285,26.647,0.763
																c0.001,0,0.001,0,0.002,0c-3.291-10.787-7.438-20.191-17.732-25.209c0,0.002-0.001,0.002-0.002,0.004
																c-0.06-0.02-0.184-0.06-0.337-0.107c-2.892-0.945-5.842-1.848-8.763-2.518c-0.602-0.146-1.172-0.275-1.679-0.375
																c-6.669-1.309-12.346-6.381-19.343-6.26c-1,0.018-2.026,0.141-3.087,0.396c0-0.002,0-0.002,0-0.002l0,0
																c-3.91,0.84-1.644,3.5-1.078,4.97c2.107,5.497-0.588,7.935-5.274,9.552c-4.498,1.553-8.988,3.184-12.886,6.021
																C96.932,131.919,94.337,133.437,94.621,136.906z"/>
															<path fill="none" d="M91.103,111.919c4.146-0.651,8.64,0.877,12.851-1.629c1.743-1.037,1.545-2.192,1.563-3.621
																c0.023-2.07-1.479-1.805-2.759-1.813c-4.467-0.03-8.938,0.081-13.398-0.085c-2.559-0.096-5.311,0.954-7.646-0.971
																c-1.491-1.229-3.042-1.434-4.331,0.154c-1.432,1.766-0.53,3.182,0.726,4.775
																C81.626,113.208,86.606,111.039,91.103,111.919z"/>
															<path fill="none" d="M80.547,157.007c-6.813,2.664-13.717,3.763-20.892,1.644c0,0,0,0-0.001,0
																c-3.277-0.435-6.558-0.866-9.837-1.301c4.235-2.263,8.535-1.286,12.781-1.218c0,0.002,0,0.004,0,0.006
																c0-0.002,0.001-0.004,0.001-0.006c0.634,0.016,1.27,0.031,1.902,0.048c0.651-0.216,1.208,0.183,1.691,0.672
																c0.143-0.009,0.286-0.022,0.433-0.045c5.644,0.056,10.496-2.792,15.703-4.329c0.714-0.211,0.323-1.105,0.09-1.697
																c0.032-0.031,0.063-0.064,0.096-0.097c-5.64-1.582-12.228-1.076-17.772-0.313c-7.786,1.07-15.557,0.444-23.332,0.301
																c-1.161-0.021-2.307-0.903-4.472-1.814c6.092,0,11.063-0.104,16.03,0.023c7.133,0.185,14.112-0.953,21.142-1.914
																c3.48-0.477,7.813-1.123,10.863,1.845c1.822,0.29,3.241,3.813,5.021,1.619c1.411-1.741-0.752-2.486-1.978-3.603
																c-2.468-2.521-6.306-3.66-9.59-4.324c-9.535-1.924-18.979-1.877-28.474-0.047c-2.625,0.506-5.26,0.586-9.24,0.061
																c5.281-2.868,9.941-4.337,14.66-4.512c5.551-0.205,11.308-0.907,16.672,1.525c2.354,1.066,4.32-1.275,6.75-0.559
																c3.652,1.078,8.16,2.152,11.224,4.635c3.266-1.025,0.91-4.041,1.494-5.988c0.522-1.742-1.034-2.074-2.471-1.955
																c-1.596,0.133-2.546-0.361-2.275-2.164c4.007-3.063,4.007-3.063,0.92-4.719c-5.421-2.725-11.261-4.313-17.056-5.895
																c-4.636-1.266-5.813-2.957-3.855-7.459c0.434-0.995,1.304-1.897,0.04-2.723c-5.974,0.616-11.91,3.555-17.871,4.992
																l0,0l-10.088,4.057c-1,1.111-2.062,1.615-3.142,1.955l0,0c-2.959,4.974-7.298,10.067-10.868,14.643
																c-1.25,1.602,0.336,2.133,2.062,2.65c3.305,0.992,7.046,0.104,10.075,2.201c-4.858,0.469-9.685,0.998-14.428-0.082
																l-4.686,7.862l-0.001-0.007c-0.591,1.201-1.579,2.261-3.174,3.035c-1.246,3.117,0.868,6.761,4.502,7.676
																c0.632,0.159,1.322,0.163,1.979,0.127c13.231-0.73,26.38,1.532,39.611,1.053c5.688-0.207,11.395-0.068,17.086,0.096
																c2.385,0.067,4.543-0.467,6.678-1.362h0.001c0.321-0.269,0.641-0.534,0.961-0.802c0,0,0,0,0.001-0.002
																C85.531,155.445,85.236,155.173,80.547,157.007z"/>
															<path fill="none" d="M120.81,164.884c7.777,0.242,15.448-1.857,23.215-1.043c3.521,0.369,5.106-1.01,5.399-4.985
																c-13.698,1.38-26.968,2.718-40.938,4.123C112.939,164.962,116.874,164.761,120.81,164.884z"/>
															<path fill="none" d="M172.311,158.935c1.146-2.042,4.085-0.641,4.743-3.064c-2.354-1.832-5.146-0.492-7.647-1.055
																c-0.993-0.225-2.755,0.465-2.66-1.3c0.063-1.166,1.335-1.759,2.66-1.771c1.605-0.018,3.211-0.14,5.139-0.229
																c-0.986-2.497-2.157-4.226-4.794-3.565c-9.252,2.307-18.29-1.102-27.481-0.934
																c-7.754,0.143-14.915-3.682-22.603-4.432c-0.001,0-0.002,0-0.003,0.002c-7.179-0.256-14.179,0.635-20.913,3.233
																c1.078,2.948-0.859,5.181-2.742,8.486c6.32-2.763,11.922-2.442,17.512-2.486c2.651-0.021,5.623,1.625,5.655,3.065
																c0.075,3.23-3.197,1.66-5.067,1.806c-3.167,0.243-6.454-0.349-9.56,2.045c3.669,1.81,7.437,1.353,10.855,0.872
																c14.741-2.066,29.489-3.582,44.4-2.939c1.646,0.07,3.224,0.051,4.737,0.939c0.738,0.436,2.309-0.053,1.894,1.482
																c-0.304,1.117-1.246,1.945-2.688,1.428c-3.931-1.415-7.991-0.104-12.241-1.068c2.12,3.98,8.266,6.07,12.196,4.682
																c1.152-0.408,1.998-1.34,3.571-1.116c4.46,0.634,8.96,0.8,12.271-3.757
																C177.133,158.835,174.573,161.203,172.311,158.935z"/>
															<path fill="none" d="M97.276,163.015c-2.449-2.309-5.235-4.188-7.283-7.021c-1.644-2.275-3.03-1.037-3.495,1.32
																c0,0.001,0,0.002-0.001,0.004c3.958,2.444,3.981,2.566,0.804,4.318c1.743,3.688,5.983,1.732,8.501,3.748
																c0.752,0.601,1.933,0.777,2.488-0.319C98.734,164.185,97.876,163.58,97.276,163.015z"/>
															<path fill="#1A316E" stroke="#FCFCFC" stroke-width="0.75" stroke-miterlimit="10" d="M191.273,164.759
																c-2.514-1.11-5.229-1.967-6.848-4.35c-1.86-2.74-2.573-6.095-4.146-8.986c-3.404-6.264-7.267-12.215-11.283-18.1
																c-2.271-3.326-4.554-6.644-6.729-10.033c-1.82-2.838-4.376-4.896-7.617-5.894c-4.403-1.354-8.813-2.79-13.097-4.493
																c-4.309-1.714-8.529-3.708-13.021-4.912c-2.49-0.668-5.056-1.086-7.64-1.025c-1.564,0.037-3.393,0.232-4.675-0.865
																c-1.642-1.405-1.773-3.967-2.098-5.95c-0.848-5.181-1.014-10.502-1.608-15.721
																c-0.636-5.575-1.062-11.178-1.055-16.791c0.002-1.864-0.937-4.789,0.242-6.443c1.544-2.169,7.813,0.251,9.788,0.853
																c1.649,0.502,4.216,2.731,5.933,1.616c-2.168-3.186-7.308-4.199-10.81-4.901c-5.003-1.003-10.14-1.252-15.23-1.227
																c-12.384,0.061-25.876-0.943-37.911,2.57c-1.174,0.343-3.019,0.754-3.839,1.701c0.197-0.228,3.476,0.273,3.873,0.27
																c3.712-0.036,9.401-2.517,12.095,1.203c0.483,0.668,0.782,1.434,0.971,2.231c2.499,10.525-3.225,20.436-5.782,30.344
																c-0.957,3.707-0.499,9.353-3.965,11.853c-3.289,2.373-7.603,3.273-11.331,4.763
																c-7.222,2.882-13.882,6.97-21.335,9.293c-1.868,0.583-4.04,1.298-4.613,3.418c-1.128,4.168-3.86,7.565-6.282,11.045
																c-1.99,2.858-4.186,5.34-6.512,7.931c-3.037,3.383-3.748,8.275-7.02,11.447c-2.05,1.988-4.081,4.001-6.205,5.911
																c-1.225,1.103-3.915,2.87-2.852,4.837c0.925,1.711,3.377,1.512,4.989,1.445c7.543-0.303,15.139-0.875,22.715-0.908
																c7.686-0.035,15.369,0.23,23.055,0.121c4.465-0.063,8.932-0.245,13.378-0.68c3.409-0.332,6.972-0.574,10.277,0.521
																c2.8,0.93,5.027,2.947,7.771,3.992c2.827,1.076,5.835,1.695,8.859,1.798c6.455,0.218,12.799-2.003,19.269-2.239
																c4.009-0.146,8.021-0.059,12.027,0.018c8.474,0.162,16.945,0.429,25.42,0.5c4.741,0.041,9.482,0.019,14.222-0.129
																c7.484-0.233,14.952-0.742,22.433-1.069c2.089-0.091,4.85,0.108,6.71-0.999
																C193.622,167.636,193.174,165.591,191.273,164.759z M112.102,124.236c4.688-1.617,7.383-4.055,5.274-9.552
																c-0.564-1.47-2.832-4.13,1.078-4.968c1.061-0.256,2.087-0.379,3.087-0.396c4.162-0.072,7.955,1.754,11.648,3.449
																c3.762,1.727,7.759,2.793,11.771,3.746c3.646,0.865,7.462,1.775,10.541,4.023c4.897,3.576,8.137,8.801,10.598,14.244
																c1.188,2.625,3.291,5.997,3.14,8.953c-5.521,0.321-11.276,0.2-16.818,0.139c-10.635-0.117-21.075-3.297-31.652-4.265
																c-3.105-0.284-6.227-0.448-9.348-0.437c-2.758,0.011-5.471,0.453-7.979,1.646c-1.384,0.659-7.131,2.895-8.274,1.364
																c-0.854-1.142,1.26-4.687-0.702-5.179c0.847-0.873,0.701-2.117,1.124-3.18c0.662-1.662,2.25-2.568,3.625-3.57
																C103.114,127.419,107.604,125.789,112.102,124.236z M83.107,69.502c2.047-0.657,4.49-0.889,5.767-1.213
																c3.766-0.956,7.938-2.065,11.813-1.066c2.84,0.732,4.949,3.831,3.693,6.639c-1.435,3.208-5.438,3.297-8.438,3.237
																c-1.842-0.037-3.642-0.315-5.471-0.492c-1.993-0.194-3.989,0.025-5.979-0.128c-1.587-0.122-3.789-0.943-4.576-2.416
																C78.675,71.742,81.182,70.12,83.107,69.502z M83.473,89.103c1.98-0.251,4.143-0.107,5.429-0.146
																c4.551-0.143,9.166-0.109,13.677,0.573c3.085,0.468,6.576,2.335,4.601,6.021c-1.592,2.968-5.679,2.596-8.524,2.529
																c-1.663-0.037-3.325-0.16-4.989-0.195c-2.858-0.059-5.717,0.096-8.575,0.078c-3.257-0.021-7.291-2.41-5.957-6.332
																C79.686,90.003,81.488,89.355,83.473,89.103z M77.332,103.898c0.596-0.542,1.434-0.814,2.313-0.809
																c1.924,0.017,3.375,1.725,5.092,1.869c4.039,0.34,8.221-0.084,12.273-0.097c2.165-0.006,5.59-1.188,7.506,0.082
																c2.398,1.591,0.586,4.236-1.094,5.433c-3.188,2.267-7.551,1.363-11.209,1.523c-3.288,0.145-6.687,0.387-9.919-0.395
																c-2.44-0.59-6.253-3.153-5.803-6.024C76.597,104.818,76.902,104.289,77.332,103.898z M85.485,160.789
																c-0.014,0.035-0.028,0.068-0.045,0.1c-0.991,1.879-5.843,2.125-7.564,2.074c-5.691-0.164-11.397-0.303-17.086-0.096
																c-13.231,0.48-26.38-1.783-39.611-1.052c-0.656,0.036-1.348,0.032-1.979-0.127c-1.842-0.464-3.761-2.084-4.537-3.81
																c-0.951-2.112,0.046-3.738,1.647-5.158c1.91-1.693,3.165-3.983,4.369-6.196c1.527-2.806,2.11-3.235,5.374-2.888
																c3.507,0.371,7.103,0.009,10.59-0.407c-0.322-0.245-0.872-0.694-1.326-0.888c-2.057-0.871-4.463-0.648-6.634-0.961
																c-1.09-0.155-3.029-0.289-3.654-1.383c-0.813-1.422,0.907-3.238,1.727-4.24c1.813-2.219,3.645-4.428,5.362-6.725
																c1.236-1.654,2.09-3.518,3.65-4.914c2.531-2.264,6.087-3.873,9.227-5.109c3.129-1.23,6.415-1.996,9.613-3.016
																c4.018-1.277,7.983-2.854,12.209-3.289c1.264,0.824,0.394,1.728-0.04,2.723c-1.957,4.502-0.779,6.193,3.855,7.46
																c5.802,1.586,11.657,3.181,17.057,5.894c1.032,0.52,2.747,1.166,1.888,2.574c-0.668,1.094-2.377,0.797-2.811,2.139
																c-0.614,1.904,1.277,1.955,2.623,2.144c2.698,0.375,1.873,1.467,2.128,3.745c0.205,1.83,0.676,3.543-1.497,4.226
																c-0.404,0.127-4.297-2.501-4.928-2.762c-1.983-0.82-4.033-1.733-6.198-1.896c-2.024-0.152-3.854,0.863-5.854,0.758
																c-3.526-0.186-6.855-1.688-10.411-1.828c-3.756-0.146-7.65-0.123-11.353,0.603c-1.768,0.349-3.503,0.871-5.184,1.519
																c-0.934,0.358-1.853,0.76-2.758,1.186c-0.55,0.26-2.069,1.404-2.622,1.331c5.398,0.714,10.768-0.53,16.121-1.065
																c5.141-0.517,10.341-0.496,15.475,0.107c4.638,0.546,9.521,1.188,13.604,3.62c1.445,0.86,5.736,3.206,4.081,5.25
																c-1.452,1.792-3.333-0.634-4.591-1.513c-1.85-1.291-3.941-2.279-6.229-2.355c-4.249-0.143-8.5,0.918-12.697,1.449
																c-4.479,0.566-8.988,0.986-13.507,0.871c-5.145-0.131-10.775-0.994-15.868,0.005c0.344-0.067,1.5,0.911,1.857,1.079
																c4.266,1.979,9.413,0.959,13.952,1.011c5.846,0.065,11.621-0.995,17.444-1.312c2.938-0.158,5.863-0.105,8.778,0.301
																c0.821,0.115,2.893,0.154,3.347,1.07c0.913,1.84-7.403,4.436-8.84,4.914c-3.331,1.109-5.839,0.648-9.157-0.022
																c-1.831-0.371-3.622,0.046-5.463,0.024c-1.513-0.017-3.005-0.154-4.518,0.01c-0.808,0.086-1.617,0.229-2.396,0.457
																c-0.533,0.154-1.795,0.998-2.289,0.933c3.279,0.435,6.56,0.866,9.839,1.302c7.174,2.118,14.077,1.02,20.89-1.645
																c1.036-0.405,3.253-1.614,4.313-0.764C85.666,156.892,85.866,159.83,85.485,160.789z M98.289,165.065
																c-0.557,1.097-1.736,0.92-2.488,0.319c-2.324-1.855-7.34-0.213-8.422-3.699c-0.25-0.805-0.266-3.146-0.697-4.473
																c-0.75-2.301,2.094-2.903,3.311-1.219c2.048,2.834,4.834,4.713,7.283,7.021
																C97.876,163.58,98.734,164.185,98.289,165.065z M144.023,163.732c-0.705,0.008-1.465-0.021-2.268-0.053
																c-6.461-0.252-12.846,1.061-19.274,1.439c-4.542,0.271-9.67,0.309-13.718-2.074c1.949,0.619,4.239-0.572,6.113-0.996
																c2.509-0.567,5.179-0.649,7.735-0.864c4.404-0.37,8.816-0.64,13.222-1.002c1.414-0.116,13.497-0.06,13.591-1.326
																C149.12,162.985,147.068,163.699,144.023,163.732z M167.302,163.421c-2.671,0.143-5.21,1.309-7.91,1.065
																c-3.214-0.288-6.182-1.765-7.612-4.786c2.911,0.873,6.049-0.271,8.979,0.243c1.674,0.294,3.313,1.312,4.934,0.06
																c1.151-0.889,0.961-1.946-0.242-2.615c-2.09-1.16-5.316-0.766-7.629-0.855c-6.893-0.273-13.782,0.012-20.653,0.58
																c-3.965,0.329-7.919,0.746-11.87,1.211c-3.302,0.389-6.598,0.824-9.891,1.286c-3.421,0.479-7.188,0.937-10.856-0.872
																c3.104-2.393,6.393-1.802,9.56-2.045c1.87-0.145,5.144,1.426,5.067-1.807c-0.032-1.439-3.004-3.086-5.655-3.064
																c-5.59,0.043-11.19-0.275-17.512,2.486c1.883-3.307,3.82-5.538,2.742-8.486c6.734-2.6,13.734-3.49,20.916-3.236
																c7.688,0.752,14.849,4.574,22.603,4.433c8.189-0.149,16.262,2.513,24.46,1.491c2.65-0.33,7.858-1.231,7.644,2.972
																c-0.001,0.021-4.697,0.075-5.104,0.155c-1.321,0.257-4.179,2.297-1.481,3.115c2.994,0.908,6.6-0.957,9.27,1.119
																c0.905,0.705-3.965,2.219-4.03,2.272c-1.753,1.476,1.688,1.831,2.65,1.683c1.153-0.178,2.392-0.811,3.56-0.554
																c-1.617,0.681-2.284,2.701-3.862,3.379C172.832,163.742,169.992,163.279,167.302,163.421z"/>
														</g>
													</g>
												</g>
											</g>
										</g>
									</g>
								</g>
							</g>
						</g>
					</g>
				</g>
			</g>
		</g>
	</g>
</g>
</svg>
