<?xml version="1.0" encoding="utf-8"?>
<!-- Generator: Adobe Illustrator 16.0.0, SVG Export Plug-In . SVG Version: 6.00 Build 0)  -->
<!DOCTYPE svg PUBLIC "-//W3C//DTD SVG 1.1//EN" "http://www.w3.org/Graphics/SVG/1.1/DTD/svg11.dtd">
<svg version="1.1" id="Layer_1" xmlns="http://www.w3.org/2000/svg" xmlns:xlink="http://www.w3.org/1999/xlink" x="0px" y="0px"
	 width="897.414px" height="877.208px" viewBox="0 0 897.414 877.208" enable-background="new 0 0 897.414 877.208"
	 xml:space="preserve">
<g>
	<ellipse fill="#FFFFFF" cx="448.707" cy="438.604" rx="448.707" ry="438.604"/>
	<path fill="#1B326F" d="M447.72,877.192c-18.994-0.078-34.729-0.852-50.402-2.563c-57.216-6.246-111.373-22.621-162.313-49.439
		c-37.46-19.725-71.509-44.223-101.851-73.775c-11.075-10.789-20.852-22.754-30.504-34.814
		c-12.903-16.121-25.206-32.666-36.098-50.236c-16.107-25.982-29.17-53.418-39.807-82.061
		c-8.306-22.363-15.019-45.166-19.542-68.596c-2.212-11.461-3.882-23.002-5.062-34.621c-1.496-14.738-2.23-29.51-2.133-44.311
		c0.08-12.238,0.691-24.466,1.88-36.65c7.404-75.874,32.282-145.41,75.935-208.019c40.336-57.852,91.794-103.316,153.778-136.893
		c34.679-18.785,71.177-32.879,109.502-42.219c16.01-3.902,32.185-6.882,48.518-9.083c25.436-3.427,50.979-4.481,76.603-3.634
		c14.313,0.474,28.566,1.745,42.771,3.619c53.791,7.098,104.717,23.209,152.719,48.5c48.352,25.473,90.705,58.622,126.814,99.657
		c44.191,50.222,75.348,107.558,93.291,172.029c6.1,21.913,10.35,44.187,12.875,66.797c2.553,22.866,3.375,45.788,2.174,68.76
		c-3.656,69.932-22.941,135.281-58.135,195.82c-35.025,60.254-81.936,109.348-140.162,147.592
		c-45.291,29.746-94.439,50.506-147.244,62.625c-16.846,3.867-33.854,6.771-51.035,8.656
		C480.406,876.516,464.666,877.333,447.72,877.192z M508.546,737.112c46.797,0.402,93.404,11.583,133.477,36.199
		c11.574,7.109,22.729,14.9,34.07,22.385c0.201,0.133,0.396,0.271,0.584,0.422c3.6,2.807,3.15,7.32-0.959,9.287
		c-1.906,0.914-3.965,1.23-6.072,1.115c-2.709-0.146-5.135-0.9-7.092-2.98c-1.809-1.924-3.928-3.521-6.041-5.107
		c-6.027-4.52-12.459-8.395-19.09-11.947c-7.252-3.889-14.678-7.449-21.82-11.545c-10.158-5.826-20.83-10.492-32-13.969
		c-26.018-8.098-52.633-12.689-79.902-13.201c-11.361-0.215-22.721-0.09-34.021,1.307c-10.867,1.34-21.739,2.645-32.567,4.283
		c-7.901,1.193-15.829,2.221-23.72,3.48c-13.904,2.223-27.517,5.711-41.009,9.699c-7.655,2.264-15.209,4.898-23.059,6.467
		c-10.889,2.174-21.77,4.391-32.675,6.477c-11.612,2.219-23.197,4.584-34.856,6.563c-8.589,1.457-17.215,2.662-25.828,3.955
		c-11.075,1.66-22.193,2.883-33.364,3.654c-3.669,0.252-7.341,0.512-10.997,0.91c-2.106,0.229-2.895,2.424-1.598,4.109
		c0.503,0.654,1.172,1.076,1.988,1.25c1.093,0.232,2.184,0.479,3.28,0.697c5.171,1.023,10.31,2.336,15.613,2.436
		c22.029,0.414,43.637-1.364,65.508-3.699c57.045-6.09,111.811-27.52,169.325-31.456c16.171-1.107,32.478-1.38,48.653-0.245
		c9.346,0.652,18.617,1.859,27.695,4.197c9.277,2.389,18.492,5.02,27.795,7.314c4.352,1.074,8.576,2.541,12.646,4.429
		c11.812,5.479,23.854,10.709,34.792,17.842c4.909,3.202,10.074,6.744,13.872,11.277c3.389,4.044,5.035,10.671,9.665,13.506
		c4.897,2.999,11.424-2.09,16.165-4.405c12.229-5.973,23.525-13.57,35.314-20.313c2.57-1.471,4.82-3.426,6.891-5.563
		c3.352-3.465,3.266-5-0.512-7.898c-7.115-5.463-14.617-10.352-22.398-14.795c-17.34-9.902-34.689-19.707-53.363-27.096
		c-49.583-19.613-103.174-24.997-156.053-21.055c-7.256,0.541-14.506,1.184-21.74,1.959c-10.49,1.125-20.92,2.711-31.295,4.641
		c-13.513,2.514-26.945,5.34-40.086,9.455c-28.822,9.026-57.13,15.525-87.115,19.394c-16.483,2.126-33.757,5.568-50.53,8.292
		c-5.758,0.935-46.307,2.854-46.873,6.607c-0.207,1.369,0.306,2.348,1.776,2.688c15.776,3.646,32.063,1.158,48.017,0.506
		c16.369-0.669,32.72-1.051,49.002-3.045c38.292-4.69,73.517-17.715,110.947-25.377c22.792-4.664,45.649-8.834,68.845-11
		C481.384,737.952,494.929,736.995,508.546,737.112z M120.561,159.267c1.061,13.752,23.458,14.46,33.591,15.866
		c19.213,2.666,38.426,5.721,57.153,10.874c7.729,2.127,15.545,3.619,23.522,4.373c5.33,0.504,10.653,1.108,15.96,1.815
		c31.919,4.257,63.528,10.7,95.451,14.923c35.828,4.745,71.36,12.45,107.503,14.648c10.375,0.631,19.944-3.813,3.35-8.095
		c-41.785-10.783-81.088-32.536-120.912-48.75c-47.975-19.533-93.828-41.871-143.561-56.848c-15.879-4.781-31.15,4.255-42.997,14.02
		c-9.137,7.531-28.614,22.553-29.09,35.619C120.512,158.248,120.522,158.766,120.561,159.267z M72.518,306.658
		c-18.918,2.651-43.654,14.382-49.245,35.446c-9.198,34.656,39.906,19.387,54.666,14.547c19.425-6.371,41.734-10.821,62.492-15.582
		c21.273-4.879,41.84-11.854,62.893-17.509c34.237-9.198,68.862-18.68,103.296-27.192c29.498-7.292,58.529-16.285,87.57-25.186
		c10.546-3.233,21.074-6.402,31.227-10.732c0.732-0.313,1.5-0.578,2.166-1c0.985-0.623,1.283-1.692,0.886-2.708
		c-0.388-0.995-1.188-1.221-2.144-1.108c-4.124,0.489-8.268,0.811-12.356,1.6c-49.973,9.634-100.087,18.617-150.469,25.849
		C199.977,292.199,135.989,297.764,72.518,306.658z M61.936,240.475c-5.246,1.721-9.471,5.579-14.109,14.908
		c-4.356,8.761-12.047,19.557-11.988,29.696c0.118,20.016,34.19,7.794,44.775,6.957c53.926-4.266,97.878-12.496,146.764-20.672
		c17.818-2.98,35.796-4.847,53.774-6.542c39.413-3.715,78.384-15.712,117.696-18.018c2.596-0.152,3.745-2.502,3.355-4.697
		c-6.656-2.753-17.352-0.662-24.726-0.958c-10.241-0.411-20.444-0.57-30.691-0.221c-6.954,0.237-13.915,0.32-20.871-0.02
		c-6.23-0.305-12.453-0.775-18.697-0.762c-8.558,0.018-17.117-0.028-25.675,0.061c-13.201,0.137-26.393-0.099-39.581-0.684
		c-11.823-0.525-23.635-1.354-35.482-1.195C158.384,238.974,109.013,225.034,61.936,240.475z M102.703,178.891
		c-13.259,3.562-17.5,13.033-25.933,25.506c-11.395,16.855,8.179,18.172,20.163,19.718c95.452,12.314,192.399,7.26,288.362,7.364
		c3.685,0.003,7.374,0.191,11.002,0.75c6.186,0.952,12.082-0.485,18.021-1.743c0.857-0.182,1.41-0.72,1.342-1.702
		c-0.067-0.973-0.674-1.385-1.549-1.53c-0.158-0.026-0.32-0.02-0.479-0.046c-5.278-0.881-10.557-1.762-15.834-2.649
		c-12.842-2.159-25.678-4.352-38.526-6.471c-29.671-4.894-59.167-12.091-88.842-16.558c-4.425-0.666-8.888-1.118-13.279-1.955
		c-11.851-2.256-23.679-4.587-35.656-6.139c-13.708-1.776-27.322-4.2-40.923-6.664c-13.984-2.534-27.73-6.805-41.92-8.117
		c-11.313-1.046-23.571-2.608-34.788-0.052C103.469,178.693,103.083,178.789,102.703,178.891z M257.565,49.794
		c-14.237,0.078-32.428,12.895-44.075,20.571c-15.129,9.971-17.327,24.226,0.767,32.595c13.163,6.088,27.916,8.528,41.604,13.077
		c16.379,5.443,32.399,12.693,48.572,19.074c36.183,14.276,72.058,29.756,108.726,42.75c9.18,3.254,18.356,6.525,27.306,10.397
		c2.324,1.006,4.393,1.789,6.853,1.517c-0.175-6.432-8.648-11.904-13.604-15.686c-28.848-22.016-57.772-43.932-86.95-65.509
		c-15.129-11.188-30.313-22.303-45.597-33.282c-12.845-9.228-25.448-24.903-42.531-25.49
		C258.277,49.797,257.921,49.792,257.565,49.794z M339.194,22.048c-10.303-1.016-24.168,3.718-31.321,6.465
		c-21.519,8.264-11.373,18.155,3.088,29.694c10.388,8.289,21.748,15.209,32.225,23.346c43.875,34.073,87.954,67.948,132.6,101.007
		c0.512,0.379,1.055,0.724,1.609,1.035c0.98,0.548,1.971,0.646,2.906-0.118c0.971-0.792,0.955-1.822,0.531-2.835
		c-0.771-1.837-1.391-3.733-2.426-5.463c-33.307-55.663-77.186-113.255-131.329-150.56
		C344.928,23.138,342.214,22.346,339.194,22.048z M641.574,630.23c13.122,0.385,26.267,1.043,39.276-0.008
		c26.923-2.175,53.436-6.964,80.008-11.622c29.176-5.114,58.52-10.609,85.759-22.67c5.029-2.229,8.672-5.748,10.846-10.93
		c3.631-8.652,6.424-17.537,8.238-26.734c0.186-0.939,0.363-1.893,0.42-2.846c0.145-2.502-1.086-3.598-3.523-3.139
		c-0.855,0.162-1.688,0.479-2.52,0.764c-13.523,4.619-26.85,9.785-40.242,14.764c-51.234,19.046-108.13,33.509-162.438,44.624
		c-16.281,3.332-32.652,6.226-49.111,8.532c-5.533,0.775-11.047,1.727-16.482,3.07c-0.938,0.232-1.857,0.475-2.674,1.006
		c-1.676,1.09-2.412,2.979-1.965,5.02c0.434,1.977,1.68,3.063,3.91,3.232c1.59,0.121,3.197,0.246,4.779-0.119
		C610.894,629.702,626.218,629.779,641.574,630.23z M560.07,204.31c0-1.038,0.049-2.079-0.016-3.113
		c-0.059-0.959-0.699-1.378-1.619-1.409c-0.873-0.029-1.348,0.444-1.455,1.265c-0.113,0.87-0.17,1.747-0.232,2.623
		c-0.074,0.984-0.318,1.906-1.061,2.601c-1.533,1.436-6.936,1.236-8.354-0.29c-0.445-0.479-0.746-1.043-0.889-1.676
		c-0.141-0.62-0.242-1.25-0.34-1.879c-0.396-2.581-1.447-3.683-3.928-4.102c-3.273-0.553-4.014-0.233-5.383,2.475
		c-1.393,2.75-3.635,4.173-6.678,4.341c-1.115,0.062-2.238,0.015-3.357,0.003c-3.178-0.032-4.383,0.96-4.725,4.097
		c-0.295,2.701-0.484,5.414-0.691,8.124c-0.264,3.428-0.512,6.856-0.742,10.287c-0.186,2.754,0.467,5.315,2.418,7.293
		c2.131,2.157,4.436,4.154,6.953,5.866c2.146,1.459,4.48,1.771,6.816,0.61c1.291-0.641,2.338-0.538,3.596,0.037
		c2.307,1.053,9.561,2.192,9.619,3.466c0.053,1.153,0.859,1.983,2.326,2.395c4.463,1.253,8.59-1.589,9.174-6.232
		c0.48-3.822,0.689-7.659,0.465-11.49c-0.316-5.39,1.209-7.73,6.795-9.25c7.17-1.951,13.828-5.044,19.309-10.206
		c11.625-10.952,24.381-20.411,37.801-29.024c23.758-15.247,47.15-31.009,69.057-48.881c8.121-6.625,16.277-13.193,23.617-20.701
		c1.23-1.259,2.469-2.515,3.447-3.985c1.326-1.991,1.225-3.482-0.342-5.193c-1.25-1.365-2.77-2.414-4.262-3.488
		c-9.346-6.726-19.021-12.958-28.678-19.224c-0.602-0.391-1.219-0.771-1.857-1.093c-2.225-1.121-3.453-0.949-5.092,0.931
		c-1.26,1.443-2.387,3.003-3.514,4.555c-9.723,13.395-19.598,26.637-30.654,39.017c-15.766,17.65-30.848,35.905-46.529,53.638
		c-8.209,9.284-15.99,18.951-24.977,27.526c-3.182,3.036-6.396,6.039-9.68,8.964c-2.707,2.411-4.213,1.939-5.283-1.562
		C560.402,209.245,559.859,206.827,560.07,204.31z M157.676,651.786c27.268-1.62,55.188,7.397,71.186,28.144
		c12.887,16.713,17.162,33.981,14.809,54.713c-1.27,11.195-1.829,28.819,14.546,19.963c9.889-5.349,8.729-33.171,8.401-42.417
		c-0.612-17.252-6.005-33.318-16.666-47.002c-11.179-14.349-27.022-24.874-43.403-32.419c-25.983-11.968-58.738-16.801-85.745-5.066
		c-13.292,5.774-26.796,19.129-30.586,33.621c-1.104,4.224-3.127,29.062,5.513,18.759
		C110.146,662.893,133.658,653.213,157.676,651.786z M568.652,32.489c-0.819-4.061-2.58-7.306-5.808-8.986
		c-10.771-5.609-22.986-7.963-34.816-10.176c-8.011-1.499-24.083-7.707-30.529-0.468c-6.027,6.768,1.096,17.573,4.146,24.077
		c3.8,8.104,6.72,16.626,9.463,25.145c6.146,19.085,11.555,38.386,16.811,57.731c5.297,19.5,10.826,38.943,13.93,58.962
		c0.061,0.389,0.205,0.768,0.342,1.142c0.244,0.676,0.793,1.008,1.461,1.076c0.801,0.081,1.42-0.311,1.727-1.033
		c0.279-0.657,0.475-1.358,0.623-2.058c3.258-15.394,6.516-30.788,9.75-46.187c2.088-9.937,3.645-19.961,4.951-30.027
		c1.389-10.698,2.789-21.396,4.127-32.101C565.786,61.919,570.966,43.951,568.652,32.489z M647.49,672.504
		c8.765,6.618,22.567,4.881,32.754,4.09c26.407-2.051,52.959-1.814,79.295-4.824c20.373-2.328,43.189,0.422,60.355-12.892
		c10.855-8.419,24.439-28.168,26.251-42.28c0.977-7.611-4.246-9.264-11.296-6.287c-52.609,22.217-110.176,28.453-166.615,32.625
		c-15.629,1.155-31.197,1.856-46.876,1.65c-2.976-0.039-24.849-1.651-17.17,6.748c2.133,2.333,16.968,3.185,20.377,3.865
		c8.595,1.716,17.352,2.518,26.097,2.949c13.258,0.654,26.523,1.121,39.805,1.201c45.127,0.272,90.126-9.42,133.48-26.262
		c0.967-0.377,1.918-0.799,2.971-0.9c1.223-0.119,2.209,0.262,2.877,1.316c0.682,1.076,0.578,2.152-0.172,3.129
		c-1.748,2.285-3.406,4.648-5.537,6.613c-1.492,1.379-3.184,2.457-5.172,2.896c-3.924,0.869-7.629,2.326-11.303,3.904
		c-22.882,9.829-47.723,16.003-72.557,17.932c-16.176,1.256-32.328,3.565-48.588,3.227
		C674.755,670.961,658.193,666.238,647.49,672.504z M515.207,395.249c-1.279,1.121-2.529,1.503-3.619,2.161
		c-1.369,0.825-2.389,1.882-2.477,3.58c-0.316,6.068-0.965,12.097-1.801,18.121c-0.701,5.058-0.805,10.161-3.377,14.829
		c-1.279,2.322-0.027,4.806,2.42,5.906c1.135,0.512,2.32,0.521,3.527,0.486c1.834-0.053,3.684-0.197,5.479,0.338
		c1.627,0.484,2.088,1.141,2.035,2.777c-0.092,3.039-1.529,4.191-4.533,3.496c-4.461-1.035-8.789-2.408-12.408-5.4
		c-0.307-0.252-0.65-0.467-1.004-0.65c-2.279-1.188-4.453-0.068-4.68,2.494c-0.23,2.637,0.949,4.641,3.141,6.047
		c1.152,0.742,2.461,1.127,3.775,1.484c3.234,0.879,6.453,1.824,9.703,2.648c5.895,1.494,11.516,3.82,17.309,5.617
		c2.918,0.906,5.896,1.422,8.979,1.064c12.701-1.475,25.404-2.908,38.031-4.949c4.83-0.779,6.162,0.322,6.309,5.182
		c0.213,7.035,0.742,14.053,1.135,21.076c0.254,4.551,0.6,9.096,0.902,13.643c0.072,1.088,0.275,2.107,1.566,2.373
		c1.229,0.254,1.895-0.475,2.494-1.42c1.529-2.416,2.049-5.002,1.486-7.803c-0.615-3.061-0.941-6.158-1.266-9.26
		c-0.844-8.107-1.504-16.232-2.047-24.37c-0.438-6.548-1.237-25.583-1.003-29.676c0.512-8.926,0.587-28.1-2.69-33.059
		c-1.332-2.016-3.711-2.599-5.629-1.214c-3.148,2.272-6.693,2.877-10.426,2.969c-2.236,0.055-4.475-0.003-6.709,0.225
		c-11.814,1.206-23.48,0.378-34.904-2.925c-4.828-1.396-9.563-3.113-14.354-4.643c-1.213-0.387-2.469-0.663-3.719-0.903
		c-1.047-0.201-1.902,0.155-2.342,1.204c-0.422,1.013-0.168,1.924,0.645,2.592c0.734,0.605,1.559,1.115,2.387,1.594
		C510.011,392.318,512.503,393.714,515.207,395.249z M419.469,5.402c-6.88-0.014-14.647,0.579-17.765,5.782
		c-5.709,9.526,14.335,24.439,19.848,30.646c11.237,12.652,22.544,25.293,32.391,39.083c17.059,23.89,33.201,48.488,47.484,74.147
		c5.715,10.267,11.383,20.556,15.648,31.542c0.145,0.372,0.309,0.738,0.498,1.088c0.414,0.764,1.008,1.289,1.934,1.038
		c0.814-0.22,1.021-0.912,1.111-1.674c0.229-1.933,0.154-3.814-0.594-5.657c-0.604-1.477-1.188-2.975-1.606-4.515
		c-7.863-28.857-16.015-58.148-27.168-85.921c-5.629-14.018-11.775-27.833-17.646-41.751c-5.25-12.446-10.092-27.465-19.829-37.275
		c-6.997-7.047-17.309-6.815-26.526-6.49C425.084,5.521,422.355,5.408,419.469,5.402z M654.009,60.63
		c-0.1-1.585-0.752-2.819-1.863-3.837c-1.191-1.091-2.584-1.871-3.992-2.63c-8.58-4.629-17.438-8.685-26.398-12.511
		c-3.893-1.663-7.85-3.159-12-4.078c-4.152-0.919-6.693,0.718-7.383,4.895c-0.43,2.611-1.107,5.146-1.877,7.668
		c-1.07,3.511-2.328,6.974-2.98,10.601c-0.732,4.089-1.641,8.139-2.697,12.156c-2.646,10.046-6.248,19.792-9.283,29.715
		c-5.396,17.638-10.17,35.453-14.924,53.272c-1.584,5.939-3.016,11.919-4.5,17.885c-0.418,1.671-0.154,2.457,0.945,3.12
		c1.082,0.652,2.059,0.529,3.281-0.475c0.492-0.404,0.928-0.879,1.377-1.333c5.021-5.054,9.701-10.414,14.148-15.974
		c10.541-13.177,20.148-27.053,30.359-40.477c7.748-10.188,14.477-21.084,21.936-31.471c2.891-4.024,5.686-8.118,8.473-12.215
		c2.113-3.106,4.051-6.325,5.844-9.628C653.279,63.825,653.869,62.266,654.009,60.63z M246.145,588.782
		c8.636-5.481-17.521-26.49-22.264-30.883c-16.353-15.145-33.852-29.039-52.12-41.815c-17.58-12.295-36.427-26.183-56.183-34.743
		c-3.672-1.594-7.243-3.375-10.701-5.379c-5.615-3.254-11.491-5.938-17.549-8.244c-3.657-1.391-7.324-2.758-10.974-4.166
		c-11.41-4.398-22.902-8.52-34.925-10.979c-7.898-1.616-15.773-3.357-23.655-5.057c-9.036-1.946-14.93,11.931-6.563,13.502
		c0.786,0.146,1.568,0.309,2.356,0.441c6.141,1.045,12.357,1.711,18.367,3.424c5.534,1.578,10.854,3.787,16.265,5.73
		c8.416,3.02,17,5.674,25.053,9.568c34.596,16.731,67.333,34.772,98.58,57.201c13.022,9.346,25.299,19.572,36.661,30.889
		c4.591,4.572,9.204,9.123,13.817,13.674c5.077,5.008,11.055,8.424,18.396,8.123C243.226,589.966,244.994,589.511,246.145,588.782z
		 M9.107,480.737c0.479,17.069,29.509,16.892,42.108,22.058c24.325,9.975,30.22,13.014,47.218,22.602
		c34.342,19.369,63.399,43.46,90.652,71.826c3.944,4.105,17.788,7.131,21.872,1.952c6.275-7.957-6.918-20.118-11.84-24.854
		c-22.023-21.188-47.617-41.256-75.062-54.854c-7.23-3.582-14.426-7.225-21.287-11.502c-11.421-7.117-24.14-11.734-36.498-16.908
		c-11.463-4.8-22.449-10.967-34.63-13.827C23.9,475.412,8.717,466.55,9.107,480.737z M470.608,786.083
		c18.88-0.21,37.639,1.715,55.493,6.13c13.121,3.245,26.003,8.347,37.665,15.224c14.977,8.831,30.802,21.814,48.004,25.808
		c5.734,1.331,7.769,1.282,5.964-4.641c-2.356-7.732-13.951-15.376-20.024-19.797c-10.227-7.444-21.563-13.364-33.487-17.581
		c-30.37-10.741-62.562-12.647-94.479-11.834c-7.514,0.191-15.02,0.754-22.44,2.027c-27.388,4.708-54.853,9.195-81.844,15.891
		c-24.74,6.137-49.9,10.346-75.04,14.455c-6.889,1.126-13.905,1.66-20.822,2.605c-3.623,0.495-24.005,1.73-16.426,7.723
		c1.873,1.48,5.932,1.235,8.151,1.417c8.303,0.681,17.007,0.013,25.287-0.874c6.839-0.732,13.585-2.061,20.368-3.158
		c5.994-0.971,12.024-1.748,17.982-2.898c5.563-1.074,11.013-2.74,16.582-3.771C385.549,804.659,425.001,786.59,470.608,786.083z
		 M592.716,606.987c1.348,0.145,2.645,0.645,3.852,1.271c2.982,1.553,6.125,1.588,9.336,1.086c1.664-0.258,2.428-1.561,1.783-3.166
		c-0.293-0.729-0.75-1.406-1.205-2.059c-2.104-3.016-4.285-5.977-6.332-9.029c-1.711-2.551-2.975-5.357-3.086-8.459
		c-0.098-2.629-0.285-5.107-1.324-7.635c-1.644-3.99-2.006-8.1-0.007-12.286c2.445-5.125-1.047-10.797-5.342-13.632
		c0.41,0.271-2.371,20.553-2.853,22.145c-0.547,1.807-1.625,2.895-3.529,3.082c-0.873,0.086-1.748,0.188-2.625,0.199
		c-2.398,0.037-4.799,0.008-7.195,0.045c-4.479,0.07-24.217,0.896-27.977,0.443c-5.076-0.613-10.188-1.035-15.211-1.957
		c-5.744-1.055-11.48-1.998-17.305-2.488c-5.492-0.461-11.006-0.818-16.439-1.799c-3.938-0.711-7.871-1.395-11.881-1.467
		c-1.902-0.035-2.721,0.508-3.157,1.93c-1.357,4.44,2.667,9.679,3.217,14.106c1.097,8.839-1.564,19.356,8.66,21.122
		c5.127,0.885,10.56-0.18,15.733-0.096c13.434,0.225,26.857,0.74,40.281,1.211c8.938,0.313,33.521-3.59,34.758-3.281
		C586.966,606.795,591.248,606.829,592.716,606.987z M22.736,507.084c-1.277,0-2.557-0.047-3.832,0.01
		c-2.601,0.119-3.923,1.4-4.168,4.018c-0.075,0.793-0.063,1.598-0.042,2.395c0.159,5.945,1.301,11.756,2.656,17.51
		c1.015,4.309,3.198,6,7.657,6.227c2.71,0.135,5.435-0.01,8.153-0.047c2.484-0.035,4.934,0.039,7.354,0.777
		c9.391,2.867,18.809,5.648,28.204,8.508c10.942,3.328,21.772,6.986,31.676,12.834c19.173,11.32,37.849,23.332,53.284,39.684
		c1.042,1.105,2.167,2.131,3.268,3.178c2.548,2.43,5.136,4.809,8.061,6.795c4.069,2.768,8.53,4.322,13.46,4.459
		c1.625,0.043,3.309,0.064,4.064-1.793c0.721-1.775-0.454-2.914-1.618-3.896c-6.142-5.178-11.26-11.336-16.684-17.207
		c-14.099-15.268-29.506-29.063-46.652-40.848c-9.629-6.617-19.932-12.109-30.168-17.711c-13.465-7.367-27.1-14.348-41.646-19.4
		C38.267,509.971,30.745,507.583,22.736,507.084z M576.72,317.901c0.865-0.324,1.078-1.099,1.162-1.929
		c0.115-1.163-0.316-2.198-0.74-3.235c-0.844-2.074-1.707-4.154-1.773-6.43c-0.133-4.474-0.311-8.946-0.135-13.427
		c0.107-2.802,0.551-5.565,0.738-8.353c0.127-1.856-0.43-2.623-1.939-3.129c-1.594-0.534-2.43-0.3-3.426,1.241
		c-1.828,2.831-4.457,4.367-7.73,4.625c-7.164,0.566-14.311,1.407-21.514,1.431c-4.17,0.014-8.305-0.27-12.408-0.992
		c-3.395-0.596-6.654-1.633-9.898-2.775c-2.646-0.931-4.4,0.69-3.957,3.483c0.23,1.432,1.002,2.497,2.293,3.182
		c0.857,0.454,1.773,0.725,2.717,0.907c1.566,0.304,3.131,0.634,4.711,0.86c2.215,0.317,3.592,1.621,4.412,3.595
		c0.359,0.869,0.865,1.815,0.021,2.683c-0.809,0.831-1.842,0.845-2.904,0.615c-1.129-0.245-1.977-1.013-2.936-1.577
		c-2.563-1.507-3.918-0.847-4.189,2.076c-0.303,3.263-0.791,6.5-1.281,9.738c-0.756,4.98-1.422,9.973-1.021,15.035
		c0.209,2.64,0.57,5.176,3.754,5.93c0.076,0.018,0.145,0.068,0.211,0.11c0.506,0.321,0.857,0.741,0.738,1.38
		c-0.125,0.672-0.484,1.182-1.184,1.358c-0.814,0.205-1.566,0.012-2.311-0.354c-1.154-0.567-2.201-1.292-3.242-2.036
		c-0.582-0.415-1.17-0.861-1.822-1.127c-1.34-0.545-2.771,0.124-2.932,1.517c-0.451,3.94-0.32,6.442,4.309,8.143
		c0.74,0.272,1.537,0.439,2.322,0.55c2.301,0.323,4.541,0.859,6.754,1.564c5.352,1.705,10.857,2.664,16.438,3.143
		c9.928,0.851,19.799,0.135,29.646-1.181c1.184-0.158,2.395-0.255,3.58-0.193c1.592,0.083,2.328,0.858,2.371,2.431
		c0.023,0.948-0.09,1.923-0.303,2.85c-0.506,2.217-0.463,4.45-0.283,6.681c0.174,2.164,0.92,4.207,1.531,6.271
		c0.24,0.815,0.822,1.404,1.77,1.316c1.027-0.095,1.551-0.742,1.625-1.748c0.037-0.476,0.037-0.957,0.023-1.434
		c-0.068-2.397-0.186-4.793-0.213-7.191c-0.064-5.687-0.773-11.317-1.459-16.948C577.949,334.126,575.906,318.205,576.72,317.901z
		 M532.642,625.262c-6.316-0.223-12.633-0.521-18.949-0.127c-7.332,0.459-14.393,1.994-20.975,5.377
		c-4.334,2.229-8.621,4.557-13.016,6.654c-6.117,2.92-10.412,7.537-13.379,13.545c-2.42,4.9-4.221,10.014-5.387,15.338
		c-1.594,7.27-3.064,14.559-2.219,22.08c1.143,10.139,6.076,18.025,14.201,24.023c0.902,0.668,1.891,1.203,3.041,1.334
		c2.957,0.342,4.803-1.939,3.711-4.699c-0.436-1.104-1.121-2.117-1.758-3.129c-1.893-3.008-3.191-6.238-3.93-9.723
		c-0.975-4.598-0.91-9.197-0.396-13.838c1.021-9.232,4.314-17.477,10.439-24.527c4.246-4.891,9.35-8.699,14.979-11.84
		c15.252-8.514,31.752-11.373,49.006-10.73c9.625,0.359,17.523,4.451,24.061,11.379c3.916,4.152,7.264,8.725,9.971,13.75
		c5.521,10.25,7.457,21.148,5.953,32.697c-0.623,4.779-2.018,9.365-3.168,14.014c-0.691,2.789-1.561,5.543-1.887,8.41
		c-0.277,2.455,0.416,3.557,2.689,4.443c1.725,0.674,3.535,1.037,5.373,1.145c2.23,0.133,3.26-0.674,3.738-2.84
		c0.17-0.773,0.252-1.582,0.262-2.375c0.027-2.41,0.439-4.771,0.811-7.141c1.248-7.973,2.775-15.902,3.313-23.979
		c0.725-10.861-0.975-21.303-6.275-30.826c-10.002-17.977-25.379-27.604-46.055-28.391
		C542.085,625.11,537.361,625.262,532.642,625.262z M290.042,748.403c2.225,0.033,4.3-0.191,6.325-0.639
		c6.855-1.515,13.719-3.054,20.694-3.909c8.279-1.013,26.627,0.513,22.404-12.503c-5.914-18.228-17.392-33.187-30.07-47.221
		c-5.786-6.405-23.837-27.85-34.526-20.313c-6.246,4.403,0.438,14.896,2.535,19.784c6.903,16.102,8.445,32.813,5.797,50.021
		c-0.8,5.186-4.161,13.079,3.401,14.499C287.789,748.344,288.977,748.438,290.042,748.403z M339.268,839.426
		c27.979-2.98,53.564-15.12,80.058-23.518c25.421-8.059,52.93-10.815,79.329-6.357c14.994,2.532,30.578,7.707,43.974,14.987
		c11.465,6.231,28.202,21.266,41.58,22.17c12.661,0.855-6.139-13.376-9.695-16.093c-21.737-16.612-48.229-26.347-75.389-28.932
		c-28.134-2.678-56.415-0.234-84.049,5.386c-17.36,3.53-34.203,9.082-51.288,13.685c-13.623,3.67-27.841,4.68-41.329,8.891
		c-8.49,2.649-21.528,9.097-4.504,10.247C325.21,840.383,332.299,840.168,339.268,839.426z M256.247,615.389
		c14.315-0.018,25.401,1.709,37.201,5.805c18.325,6.361,34.723,16.146,49.748,28.316c11.025,8.934,20.897,19.094,30.823,29.188
		c7.261,7.384,14.185,15.133,20.373,23.446c3.973,5.337,6.882,11.694,11.831,16.256c2.734,2.521,14.564,8.968,13.287-0.122
		c-0.429-3.061-1.528-5.871-3.436-8.324c-1.374-1.77-2.77-3.521-4.209-5.236c-9.691-11.52-20.287-22.197-30.896-32.854
		c-33.406-33.559-77.624-71.864-127.598-74.188c-12.621-0.586-27.79,1.788-39.236,7.435c-5.957,2.938-11.277,8.477-6.167,14.477
		c7.598,8.918,17.105,0.155,25.646-1.702C241.46,616.178,249.39,615.334,256.247,615.389z M214.03,743.129
		c0,2.039,0.009,4.84-0.004,7.641c-0.007,1.387,0.224,2.715,0.947,3.908c1.722,2.848,4.558,3.281,7.068,1.125
		c2.49-2.139,4.316-4.703,5.152-7.912c0.725-2.783,1.393-5.58,1.698-8.449c0.602-5.668,0.449-11.338,0.03-17.006
		c-1.037-14.027-6.043-26.43-15.53-36.854c-7.744-8.506-16.708-15.373-27.842-18.928c-24.361-7.778-56.47-6.266-74.487,13.934
		c-0.742,0.832-1.403,1.746-2.019,2.678c-2.955,4.471-4.005,9.35-3.08,14.641c0.438,2.508,1.372,3.195,3.795,2.58
		c1.151-0.293,2.264-0.775,3.352-1.266c6.089-2.744,10.78-7.921,16.77-10.94c18.68-9.419,46.572-7.803,63.532,4.607
		C209.985,705.014,214.139,723.514,214.03,743.129z M255.266,620.617c-12.946-1.481-24.286-0.124-21.691,9.917
		c0.328,1.271,0.922,2.403,1.862,3.296c9.42,8.954,22.813,1.932,33.954,2.435c51.626,2.331,83.976,52.489,112.58,89.121
		c0.939,1.203,1.919,2.354,3.271,3.123c2.146,1.227,4.131,0.781,6.063-0.52c1.874-1.262,2.531-3.006,2.159-5.188
		c-0.203-1.191-0.67-2.299-1.139-3.398c-2.307-5.418-5.542-10.264-9.332-14.729c-6.83-8.051-13.889-15.898-21.497-23.227
		c-7.428-7.156-15.063-14.1-22.417-21.328c-15.019-14.764-32.506-25.455-52.37-32.35
		C283.071,626.508,268.349,622.114,255.266,620.617z M28.431,549.574c-2.01,0.313-3.688,1.418-4.688,4.013
		c-3.413,8.85,8.505,18.246,16.275,18.316c13.347,0.119,26.157,2.838,38.489,7.93c11.605,4.791,22.158,11.363,32.238,18.768
		c6.186,4.541,12.282,9.215,18.783,13.311c2.297,1.445,4.631,2.846,7.024,4.125c2.734,1.463,5.542,1.393,8.25-0.137
		c2.374-1.344,2.854-2.961,1.69-5.422c-0.764-1.611-1.947-2.922-3.137-4.219c-3.958-4.314-8.511-7.982-12.877-11.858
		c-22.513-19.985-47.069-31.495-75.662-39.73C46.36,552.234,37.421,548.176,28.431,549.574z M533.585,644.786
		c-12.652,0.492-26.102,5.295-37.877,14.377c-8.307,6.406-13.414,14.938-14.645,25.51c-0.689,5.924,0.418,11.455,4.146,16.299
		c2.58,3.352,6.227,5.189,9.863,7.041c0.746,0.379,1.551,0.354,2.234-0.264c0.697-0.631,0.73-1.369,0.367-2.176
		c-0.131-0.291-0.279-0.576-0.393-0.873c-2.039-5.424-2.717-11.021-1.771-16.734c1.264-7.639,5.041-13.904,10.883-18.934
		c3.885-3.342,8.031-6.346,12.316-9.146c3.164-2.068,6.594-3.563,10.383-4.137c4.734-0.715,9.426-0.266,14.064,0.643
		c12.76,2.496,22.217,11.98,24.475,24.578c1.65,9.223,1.482,18.461-0.158,27.68c-0.279,1.572-0.643,3.141-0.76,4.727
		c-0.148,1.986,0.818,2.945,2.801,3.074c1.664,0.109,2.654-0.447,3.355-2.131c0.672-1.621,1.217-3.297,1.777-4.961
		c3.775-11.209,5.568-22.605,3.658-34.445c-2.029-12.584-8.555-21.459-20.664-25.973
		C550.615,646.319,543.38,644.838,533.585,644.786z M635.471,695.454c9.761,0.078,19.519,0.22,29.262,0.851
		c16.233,1.05,32.001,4.817,48.157,6.329c23.499,2.199,47.713,1.29,70.455-5.475c6.209-1.847,14.587-4.151,19.729-8.251
		c5.756-4.588,5.595-9.438-2.476-7.845c-4.15,0.816-8.264,1.881-12.512,2.111c-5.193,0.285-10.34,0.986-15.48,1.732
		c-6.246,0.906-12.488,1.844-18.742,2.695c-32.375,4.408-65.501,7.74-98.135,3.637c-13.413-1.687-28.954-6.884-42.184-1.91
		c-2.016,0.758-2.789,2.076-2.406,3.846c0.355,1.646,1.027,2.004,3.467,2.055C621.559,695.374,628.516,695.397,635.471,695.454z
		 M450.794,643.969c0.559,0,1.119-0.002,1.678,0c6.631,0.018,11.814-2.896,15.955-7.9c1.168-1.414,1.799-3.006,1.475-4.881
		c-0.295-1.715-1.09-2.561-2.809-2.748c-1.348-0.148-2.713-0.166-4.07-0.199c-4.805-0.117-9.58,0.389-14.356,0.777
		c-7.803,0.643-15.585,1.469-23.241,3.191c-15.102,3.402-28.945,9.896-42.415,17.299c-0.558,0.309-1.09,0.674-1.589,1.07
		c-1.843,1.463-2.021,2.77-0.667,4.742c0.271,0.395,0.572,0.771,0.895,1.125c2.587,2.836,5.268,5.58,8.07,8.201
		c0.58,0.543,1.238,1.012,1.897,1.459c1.46,0.992,2.979,1.025,4.523,0.186c1.413-0.771,2.649-1.787,3.857-2.832
		c2.6-2.248,5.165-4.537,7.776-6.771c2.813-2.408,5.877-4.4,9.465-5.488c4.123-1.252,8.231-2.549,12.361-3.775
		C436.518,645.375,443.525,643.852,450.794,643.969z M778.052,715.63c-0.246,1.156-0.621,2.264-1.426,3.223
		c-4.726,5.632-16.108,1.968-22.366,2.117c-17.533,0.42-33.804,9.032-50.108,14.503c-4.738,1.59-9.182,3.729-13.236,6.617
		c-4.361,3.105-8.631,6.342-12.938,9.525c-0.58,0.43-1.109,0.918-1.479,1.553c-0.717,1.232-0.666,2.438,0.178,3.588
		c2.545,3.48,7.926,3.748,10.617,0.402c5.16-6.414,11.713-10.758,19.391-13.557c4.582-1.67,9.293-2.908,13.939-4.359
		c5.299-1.656,10.726-2.525,16.25-2.775c8.661-0.392,18.569,1.128,27.392-1.268c10.648-2.893,16.812-12.656,23.903-20.439
		c3.127-3.436,5.736-7.281,8.363-11.104c0.537-0.781,0.936-1.537,0.174-2.367c-0.734-0.799-1.602-1.01-2.586-0.441
		c-0.207,0.121-0.424,0.223-0.635,0.336c-2.318,1.256-4.65,2.486-6.951,3.771c-2.062,1.151-5.272,2.563-6.698,4.531
		C778.511,711.316,778.492,713.553,778.052,715.63z M198.081,738.19c0.823-35.908-60.377-65.172-78.064-26.727
		c-0.738,1.605-1.302,3.283-1.143,5.092c0.19,2.162,1.963,2.98,3.714,1.73c4.262-3.041,5.994-6.865,11.13-9.054
		c11.156-4.751,25.871-5.69,36.482,0.863c6.728,4.155,11.757,10.843,14.093,18.396c2.107,6.814-0.63,14.978,2.006,21.646
		C192.556,765.963,197.947,744.017,198.081,738.19z M263.144,641.417c-3.429-0.034-6.63,0.827-7.865,3.828
		c-5.306,12.937,21.265,10.561,27.752,12.088c18.913,4.451,35.389,17.937,47.608,32.551c6.585,7.875,12.458,16.481,17.247,25.566
		c2.47,4.687,3.272,10.37,6.428,14.699c1.996,2.738,7.979,5.096,10.45,2.371c2.907-3.204-1.622-11.629-3.198-14.411
		c-6.098-10.765-16.177-20.869-24.124-30.355c-16.724-19.965-40.007-37.864-65.376-44.856
		C269.899,642.298,266.418,641.45,263.144,641.417z M44.409,581.29c-3.78-0.122-7.244,0.573-8.72,3.051
		c-6.989,11.729,18.193,13.922,23.319,14.824c10.037,1.769,19.47,6.258,28.042,11.669c5.464,3.449,10.127,9.07,16.133,11.586
		c3.105,1.301,9.95,2.135,11.673-1.694c6.235-13.909-49.908-34.391-58.531-37.179C53.726,582.707,48.85,581.433,44.409,581.29z
		 M91.179,634.346c0.121-1.918-0.659-3.52-2.033-4.877c-0.975-0.963-2.116-1.701-3.275-2.41c-11.2-6.854-21.502-13.002-33.98-17.241
		c-8.385-2.844-1.305,10.257,0,12.943C57.335,633.963,63.149,645,68.78,656.109c0.397,0.783,0.815,1.554,1.426,2.204
		c0.932,0.99,2.071,1.297,3.262,0.703C78.083,656.715,91.716,640.016,91.179,634.346z M716.468,781.108
		c1.875-0.094,3.588-1.139,5.113-2.447c8.367-7.193,16.939-14.16,24.686-22.055c1.512-1.541,3.014-3.094,4.521-4.639
		c0.873-0.893,1.113-1.939,0.656-3.086c-0.443-1.109-1.4-1.461-2.52-1.477c-0.398-0.006-0.801,0.008-1.199-0.016
		c-3.135-0.172-6.227,0.281-9.322,0.637c-7.545,0.861-15.072,1.842-22.414,3.867c-4.317,1.19-8.54,2.652-12.497,4.78
		c-13.747,7.395-4.178,14.535,4.427,20.464c1.445,0.996,2.922,1.957,4.443,2.834C713.541,780.655,714.824,781.131,716.468,781.108z
		 M550.736,702.612c0,3.467-0.057,5.863,0.018,8.26c0.064,2.037,1.521,2.959,3.459,2.318c0.797-0.264,1.434-0.746,1.84-1.457
		c0.434-0.76,0.814-1.555,1.135-2.367c2.559-6.523,3.18-13.299,2.732-20.244c-0.391-6.086-2.461-11.338-7.014-15.516
		c-3.773-3.465-8.082-5.938-13.039-7.287c-5.32-1.445-10.41-1.211-15.236,1.736c-2.109,1.289-4.334,2.393-6.473,3.633
		c-2.771,1.605-5.434,3.383-7.816,5.525c-4.686,4.213-6.982,9.449-6.475,15.789c0.277,3.457,1.633,6.484,4.047,8.992
		c1.131,1.176,2.496,1.703,4.131,1.131c1.672-0.584,1.971-1.949,1.928-3.473c-0.051-1.77,0.15-3.516,0.471-5.244
		c1.418-7.686,5.609-13.084,13.084-15.744c2.344-0.834,4.768-1.373,7.24-1.547c5.029-0.355,9.061,1.443,11.828,5.775
		c1.607,2.518,2.68,5.258,3.354,8.152C550.917,695.213,550.988,699.438,550.736,702.612z M439.376,869.208
		c1.596-0.09,3.189-0.012,4.787,0.033c2.722,0.08,4.079-1.818,3.304-4.447c-0.157-0.531-0.384-1.053-0.649-1.541
		c-0.88-1.613-1.821-3.186-3.011-4.604c-8.755-10.449-15.936-29.434-31.86-24.728c-1.223,0.361-2.452,0.73-3.617,1.236
		c-2.166,0.938-3.338,2.592-3.455,5.016c-0.141,2.924,0.313,5.727,1.39,8.439c1.387,3.492,2.982,6.885,4.799,10.174
		c0.891,1.613,1.939,3.119,3.15,4.512c3.045,3.5,6.903,5.447,11.52,5.578C430.278,869.004,434.821,869.395,439.376,869.208z
		 M148.573,720.084c-11.151,0.003-20.158,11.853-12.544,22.025c0.718,0.958,1.375,1.961,2.094,2.917
		c4.465,5.938,14.36,8.773,21.414,8.277c9.94-0.699,12.354-9.234,9.967-17.563C166.708,725.984,158.835,720.082,148.573,720.084z
		 M482.482,869.229c1.277,0,2.557,0.004,3.836-0.004c0.236-0.002,0.477-0.045,0.713-0.082c1.965-0.307,2.922-1.426,2.971-3.406
		c0.035-1.475-0.764-2.537-1.613-3.625c-6.136-7.856-13.844-14.193-21.162-20.888c-6.404-5.859-12.192-15.57-21.52-16.19
		c-2.278-0.15-4.262,0.807-5.384,2.93c-1.036,1.961-0.217,3.729,0.898,5.365c1.529,2.244,3.133,4.438,4.658,6.684
		c4.941,7.277,10.234,14.283,15.949,20.971c1.611,1.885,3.246,3.74,5.176,5.314c3.053,2.488,6.502,3.691,10.457,3.191
		C479.132,869.276,480.806,869.272,482.482,869.229z M542.237,861.187c6.682,0.823,14.641-1.073,19.198-3.94
		c2.217-1.395,3.023-4.188-0.227-5.705c-8.83-4.121-17.297-8.951-25.91-13.496c-3.175-1.676-22.115-13.143-24.799-8.813
		c-0.967,1.563-0.01,2.738,0.889,3.877c6.84,8.676,14.334,16.762,22.249,24.467C535.757,859.642,538.832,860.768,542.237,861.187z
		 M513.761,866.481c1.193-0.088,2.391-0.148,3.58-0.264c1.664-0.16,2.844-0.992,3.371-2.615c0.482-1.486-0.166-2.631-1.188-3.648
		c-0.904-0.902-1.848-1.773-2.678-2.74c-10.055-11.712-23.049-29.754-38.794-33.729c-6.326-1.594,3.219,12.656,4.231,14.138
		c6.086,8.897,13.206,17.18,20.884,24.734C506.117,865.258,509.585,866.741,513.761,866.481z M444.725,656.233
		c-9.056,0.586-17.897,2.213-26.429,5.393c-5.168,1.928-9.353,5.143-12.645,9.537c-2.338,3.119-2.373,6.119-0.168,9.283
		c2.515,3.607,4.399,3.93,7.917,1.289c3.262-2.449,6.601-4.783,10.114-6.859c5.82-3.438,11.944-6.096,18.658-7.219
		c1.732-0.291,3.489-0.455,5.208-0.809c1.619-0.334,3.279-1.043,3.548-2.805c0.346-2.234,0.822-4.635-0.775-6.686
		c-0.504-0.646-1.256-0.945-2.078-1.086C446.957,656.084,445.844,656.139,444.725,656.233z M520.803,539.832
		c0.082-4.279-8.664-7.12-11.703-7.07c-6.081,0.101-7.321,3.017-8.924,8.231c-1.942,6.32-8.318,24.077,3.552,24.719
		c3.813,0.206,13.958,2.961,15.553-1.332c1.64-4.415-0.098-9.527-0.11-14.37C519.162,546.609,520.739,543.184,520.803,539.832z
		 M391.655,865.094c3.335,0.057,5.059-2.293,4.042-5.563c-1.598-5.141-3.937-9.91-7.353-14.144
		c-4.574-5.662-28.389,5.072-34.103,6.378c-1.761,0.402-2.477,1.158-2.548,2.426c-0.086,1.504,0.768,2.387,2.033,2.924
		c0.803,0.342,1.645,0.619,2.493,0.816c6.835,1.592,13.672,3.178,20.519,4.729C381.722,863.788,386.778,864.504,391.655,865.094z
		 M559.886,488.286c0.777,5.928,0.691,11.82-0.736,17.637c-0.342,1.385,0.02,2.713,0.561,3.973c0.967,2.258,2.834,3.217,5.061,2.201
		c2.762-1.258,5.518-1.914,8.566-1.771c2.068,0.096,3.109-1.047,3.621-3.143c0.35-1.428,0.246-2.854,0.104-4.291
		c-0.48-4.922-1.549-9.789-1.156-14.795c0.188-2.383,0.08-4.799-0.021-7.193c-0.166-3.832-1.66-5.354-5.455-5.547
		c-2.152-0.111-4.316-0.072-6.475-0.037c-2.955,0.049-4.018,1.113-4.059,4.096C559.853,482.372,559.886,485.329,559.886,488.286z
		 M552.517,527.29c2.041,0.125,10.687,1.39,12.031-0.54c3.551-5.096-34.396-7.246-38.305-7.693
		c-8.532-0.977-19.212,0.679-26.965-3.729c-2.351-1.335-4.98-6.425-8.034-5.297c-3.245,1.199-2.786,6.998-0.916,9.082
		c5.541,6.175,19.906,4.971,27.208,5.39C529.214,525.171,540.837,526.576,552.517,527.29z M712,715.991
		c-8.507,0.672-25.019,8.247-27.879,9.455c-2.871,1.213-5.715,2.479-8.443,3.988c-5.299,2.936-10.023,6.568-13.686,11.461
		c-0.957,1.281-1.912,2.572-2.568,4.039c-0.762,1.703-0.463,2.621,1.088,3.666c3.984,2.684,7.832,1.738,9.931-2.602
		c6.935-14.335,30.298-22.561,44.688-25.551c1.565-0.325,2.053-0.989,1.918-2.249C716.844,716.327,714.88,715.762,712,715.991z
		 M566.873,259.147c1.676,0.668,1.982,2.014,2.242,3.343c0.203,1.038,0.482,2.031,1.139,2.863c0.758,0.964,1.66,0.884,2.316-0.143
		c0.314-0.497,0.352-1.051,0.389-1.61c0.131-1.996,0.217-3.992,0.08-5.992c-0.088-1.287-0.336-2.54-0.883-3.707
		c-0.816-1.748-1.809-2.022-3.066-0.665c-1.492,1.608-3.145,1.911-5.207,1.467c-1.781-0.383-3.598-0.699-5.469-0.36
		c-3.703,0.671-5.168,2.117-5.451,5.836c-0.188,2.469-0.219,4.952-0.242,7.429c-0.027,2.969,0.338,5.898,1.092,8.776
		c0.455,1.736,1.547,2.771,3.316,3.019c1.666,0.232,3.357,0.314,5.02,0.019c2.822-0.502,4.322-2.135,4.727-4.968
		c0.266-1.854-0.047-3.659-0.379-5.471C565.906,265.755,565.373,262.519,566.873,259.147z M571.039,369.708
		c0-2.572-0.002-4.809,0.002-7.045c0.002-0.965-0.146-1.905-0.375-2.842c-0.375-1.532-1.283-2.598-2.799-2.985
		c-3.297-0.843-6.635-0.834-9.959-0.156c-1.572,0.321-2.418,1.39-2.758,2.956c-0.328,1.504-0.357,3.016-0.275,4.53
		c0.322,5.898,1.279,11.746,1.309,17.673c0.012,2.228,1.701,3.526,3.896,3.151c2.354-0.402,4.693-0.924,6.961-1.725
		c2.184-0.771,3.336-2.254,3.658-4.561C571.134,375.599,570.914,372.482,571.039,369.708z M648.438,741.024
		c3.532,0.585,4.694-5.551,6.203-7.73c4.728-6.832,13.719-12.489,20.565-17.057c2.041-1.361,1.789-2.85-0.551-3.799
		c-1.1-0.445-2.285-0.68-3.44-0.989c-5.398-1.45-12.091,6.79-16.45,9.455c-5.707,3.491-12.713,6.502-14.199,13.805
		c-0.488,2.397,0.113,3.759,2.348,4.835C644.652,740.381,646.542,740.703,648.438,741.024z M591.796,524.858
		c-0.613-7.895-1.623-15.467-1.623-17.35c0-1.037,0.02-2.073-0.283-3.079c-1.691-5.619-4.128,1.4-5.005,3.447
		c-2.863,6.684-3.723,7.743-9.731,12.531c-9.108,7.259-0.98,6.616,5.157,7.736c9.481,1.732,4.721,16.729,8.736,17.335
		C592.725,546.029,592.598,535.168,591.796,524.858z M539.265,704.973c0.082-2.244-0.078-4.479-0.338-6.703
		c-0.502-4.277-3.875-7.66-8.143-8.219c-3.277-0.428-5.799,1.553-6.199,4.867c-0.176,1.457,0.014,2.9,0.48,4.258
		c1.021,2.967,1.643,5.99,1.93,9.115c0.232,2.557,1.654,4.232,4.246,4.869c1.344,0.33,2.691,0.369,4.047,0.34
		c2.719-0.061,3.785-1.035,3.961-3.732C539.353,708.176,539.269,706.571,539.265,704.973z M441.633,680.247
		c-4.023,0.41-8.164,0.74-12.17,1.949c-1.541,0.465-2.999,1.104-4.339,1.988c-2.823,1.867-4.869,4.381-5.977,7.58
		c-0.757,2.184-0.06,4.303,1.658,5.564c1.471,1.082,2.441,0.9,4.779-0.621c3.159-2.053,6.05-4.443,8.947-6.834
		c2.633-2.174,5.526-3.799,9.043-4.012c0.396-0.023,0.802-0.088,1.176-0.215c1.137-0.387,1.912-1.578,1.86-2.795
		c-0.051-1.178-0.759-2.119-2.002-2.371C443.68,680.292,442.705,680.323,441.633,680.247z M618.363,708.18
		c-6.238-0.014-13.223,6.051-14.107,12.238c-0.066,0.473-0.09,0.955-0.078,1.432c0.049,1.932,1.195,2.723,3.021,2.102
		c0.625-0.211,1.08-0.662,1.535-1.109c3.924-3.855,7.846-7.713,11.764-11.574c0.561-0.553,1.334-1.09,1.023-1.994
		c-0.34-0.994-1.33-1.002-2.203-1.086C619.001,708.155,618.681,708.18,618.363,708.18z M521.593,255.799
		c0.135-2.835-1.422-4.471-3.992-4.367c-2.639,0.107-3.602,1.355-3.32,4.327c0.389,4.121,0.779,8.241,1.188,12.36
		c0.102,1.029,0.246,2.056,0.412,3.076c0.135,0.833,0.471,1.55,1.455,1.621c0.877,0.063,1.268-0.526,1.516-1.25
		c0.334-0.977,0.699-1.947,0.975-2.941C521.001,264.377,520.671,259.92,521.593,255.799z M625.609,730.321
		c0.785,0.037,1.563-0.334,2.229-0.948c1.463-1.345,10.117-13.963,2.942-10.271c-2.231,1.148-10.55,5.719-8.441,9.383
		C623.029,729.68,624.046,730.344,625.609,730.321z M477.572,597.774c-0.191,1.381-0.412,2.535-0.5,3.701
		c-0.238,3.193-0.521,6.361-2.305,9.17c-0.414,0.652-0.375,1.363,0.008,2.045c0.701,1.26,2.865,2.195,4.137,1.793
		c1.254-0.398,2.037-1.803,1.758-3.551c-0.49-3.074-0.83-6.15-0.781-9.273C479.914,600.059,479.191,598.784,477.572,597.774z
		 M442.166,699.12c-1.273-0.066-2.055,0.063-2.813,0.336c-2.712,0.977-4.556,3.135-6.592,4.988c-0.902,0.822-0.59,2.271,0.333,3.229
		c0.803,0.832,1.646,0.955,2.767,0.115c1.408-1.055,2.88-1.949,4.479-2.693c1.536-0.717,2.761-1.891,3.695-3.313
		c0.801-1.219,0.459-2.125-0.918-2.525C442.664,699.125,442.175,699.122,442.166,699.12z"/>
	<path fill="#1B326F" d="M511.191,428.098c0.104-2.316,0.682-4.543,1.361-6.746c0.227-0.729,0.742-1.243,1.451-1.478
		c0.893-0.295,1.592,0.043,1.85,0.951c0.146,0.52,0.158,1.116,0.082,1.657c-0.287,2.035-0.635,4.063-0.961,6.095
		c-0.092,0.564-0.352,1.064-0.713,1.49c-0.518,0.606-1.063,1.229-2.008,0.925c-0.83-0.268-0.975-0.979-1.057-1.703
		C511.154,428.897,511.191,428.496,511.191,428.098z"/>
	<path fill="#1B326F" d="M521.912,315.992c0.061-1.032,0.109-2.065,0.188-3.096c0.055-0.735,0.313-1.404,0.813-1.952
		c0.65-0.713,1.496-0.88,2.408-0.736c0.967,0.153,1.363,0.953,1.385,1.729c0.064,2.38-0.035,4.775-0.68,7.081
		c-0.326,1.17-1.588,1.818-2.617,1.571c-1.162-0.278-1.4-1.156-1.369-2.205c0.023-0.795,0.004-1.593,0.004-2.39
		C522,315.994,521.955,315.993,521.912,315.992z"/>
	<path fill="#1B326F" d="M507.042,549.485c0.863,1.297,1.223,2.762,1.424,4.23c0.123,0.898,0.16,2.105-0.973,2.396
		c-1.045,0.27-1.705-0.625-2.207-1.471c-0.521-0.877-0.57-1.791-0.131-2.725C505.599,550.983,506.089,550.086,507.042,549.485z"/>
	<path fill="#1B326F" d="M569.683,496.415c0,0.803,0.32,1.58,0.318,2.371c-0.004,0.885-0.311,1.57-1.252,1.764
		c-0.873,0.182-1.561-0.141-2.008-0.916c-0.156-0.271-0.338-0.568-0.369-0.869c-0.313-2.998-1.104-5.945-1.012-8.986
		c0.043-1.459,0.5-2.807,1.24-4.057c0.412-0.695,1.047-0.973,1.822-0.84c0.838,0.145,1.143,0.773,1.24,1.541
		c0.01,0.08,0.02,0.158,0.02,0.238C569.685,489.911,569.683,493.163,569.683,496.415z"/>
	<path fill="#1B326F" d="M565.71,370.306c0,1.036,0.002,2.071-0.002,3.107c-0.002,0.978-0.375,1.726-1.396,1.94
		c-1.07,0.224-1.865-0.213-2.354-1.182c-0.143-0.282-0.303-0.585-0.33-0.89c-0.197-2.145-0.195-4.298,0.137-6.421
		c0.201-1.282,1.066-1.893,2.125-1.822c1.047,0.07,1.629,0.753,1.775,2.163c0.059,0.552,0.02,1.114,0.021,1.672
		c0.002,0.478,0,0.956,0,1.434C565.695,370.306,565.703,370.306,565.71,370.306z"/>
</g>
<g>
	<path fill="#1B326F" d="M475.191,330.344c0.104-2.316,0.682-4.543,1.361-6.746c0.227-0.729,0.742-1.243,1.451-1.478
		c0.893-0.295,1.592,0.043,1.85,0.951c0.146,0.52,0.158,1.116,0.082,1.657c-0.287,2.035-0.635,4.063-0.961,6.095
		c-0.092,0.564-0.352,1.064-0.713,1.49c-0.518,0.606-1.063,1.229-2.008,0.925c-0.83-0.268-0.975-0.979-1.057-1.703
		C475.154,331.144,475.191,330.742,475.191,330.344z"/>
	<path fill="#1B326F" d="M485.912,218.238c0.061-1.032,0.109-2.065,0.188-3.096c0.055-0.735,0.313-1.404,0.813-1.952
		c0.65-0.713,1.496-0.88,2.408-0.736c0.967,0.153,1.363,0.953,1.385,1.729c0.064,2.38-0.035,4.775-0.68,7.081
		c-0.326,1.17-1.588,1.818-2.617,1.571c-1.162-0.278-1.4-1.156-1.369-2.205c0.023-0.795,0.004-1.593,0.004-2.39
		C486,218.24,485.955,218.239,485.912,218.238z"/>
	<path fill="#1B326F" d="M533.767,205.455c-0.729-1.587-1.447-3.178-2.186-4.76c-0.459-0.985-0.564-1.993-0.188-3.012
		c0.23-0.615,0.609-1.101,1.35-1.199c0.75-0.099,1.184,0.261,1.553,0.854c1.053,1.696,1.59,3.468,0.912,5.447
		c-0.303,0.888-0.621,1.771-0.934,2.657C534.105,205.446,533.937,205.45,533.767,205.455z"/>
	<path fill="#1B326F" d="M471.042,451.731c0.863,1.297,1.223,2.762,1.424,4.23c0.123,0.898,0.16,2.105-0.973,2.396
		c-1.045,0.27-1.705-0.625-2.207-1.471c-0.521-0.877-0.57-1.791-0.131-2.725C469.599,453.229,470.089,452.333,471.042,451.731z"/>
	<path fill="#1B326F" d="M529.71,272.552c0,1.036,0.002,2.071-0.002,3.107c-0.002,0.978-0.375,1.726-1.396,1.94
		c-1.07,0.224-1.865-0.213-2.354-1.182c-0.143-0.282-0.303-0.585-0.33-0.89c-0.197-2.145-0.195-4.298,0.137-6.421
		c0.201-1.282,1.066-1.893,2.125-1.822c1.047,0.07,1.629,0.753,1.775,2.163c0.059,0.552,0.02,1.114,0.021,1.672
		c0.002,0.478,0,0.956,0,1.434C529.695,272.552,529.703,272.552,529.71,272.552z"/>
</g>
</svg>
